{"glyphs":{"0":{"ha":597,"x_min":22,"x_max":571,"o":"m 571 488 q 551 345 571 411 q 494 231 531 279 q 407 155 458 182 q 292 128 356 128 q 169 154 221 128 q 85 228 118 181 q 38 338 53 274 q 24 475 22 401 q 66 647 24 569 q 163 758 108 724 q 195 764 179 769 q 219 746 211 758 q 226 715 228 732 q 208 689 225 699 q 139 610 169 664 q 108 464 108 556 q 155 282 108 354 q 289 211 201 210 q 374 235 336 211 q 436 299 411 260 q 475 385 461 338 q 489 482 489 433 q 473 575 489 531 q 432 654 457 619 q 374 708 407 688 q 308 729 342 729 q 277 742 288 729 q 267 769 267 754 q 277 798 267 785 q 308 813 288 811 q 393 790 347 813 q 479 726 439 768 q 544 623 518 683 q 571 488 571 563 z "},"1":{"ha":417,"x_min":161,"x_max":286,"o":"m 282 807 q 267 669 274 753 q 254 490 260 585 q 247 301 250 396 q 244 131 244 206 q 231 93 244 106 q 203 81 218 81 q 174 93 186 81 q 161 131 161 106 q 163 301 161 206 q 171 492 165 396 q 183 676 175 589 q 201 821 190 763 q 219 849 204 840 q 249 854 233 857 q 275 839 264 851 q 282 807 286 826 z "},"2":{"ha":611,"x_min":8,"x_max":606,"o":"m 263 163 q 299 162 263 163 q 385 161 335 161 q 485 160 433 160 q 565 160 536 160 q 595 147 585 160 q 606 119 606 133 q 595 92 606 104 q 565 79 585 79 q 483 79 535 79 q 375 79 432 79 q 263 79 318 79 q 172 79 208 79 q 129 102 142 79 q 138 144 117 125 q 228 240 179 185 q 317 356 276 296 q 384 474 357 415 q 411 581 411 533 q 377 702 411 649 q 251 756 343 756 q 151 724 185 756 q 89 640 117 692 q 63 616 78 621 q 35 617 47 611 q 15 636 22 622 q 15 669 8 650 q 49 732 29 701 q 97 786 69 763 q 162 826 125 811 q 249 840 199 840 q 359 819 313 840 q 436 761 406 797 q 480 678 465 725 q 494 581 494 632 q 470 465 494 525 q 410 349 446 404 q 335 243 375 292 q 263 163 294 194 z "},"3":{"ha":667,"x_min":15,"x_max":650,"o":"m 400 694 q 381 738 400 721 q 336 765 363 756 q 279 779 310 775 q 226 783 249 783 q 146 774 183 783 q 81 753 108 765 q 41 751 57 743 q 21 775 25 760 q 24 808 15 790 q 56 835 32 825 q 134 857 89 847 q 229 867 179 867 q 309 859 264 867 q 393 832 354 851 q 460 780 433 814 q 488 694 488 746 q 451 576 488 619 q 360 496 414 533 q 457 488 406 500 q 551 450 508 475 q 622 389 594 425 q 650 310 650 353 q 604 181 650 229 q 490 108 558 133 q 342 76 421 83 q 194 68 263 68 q 163 81 174 68 q 153 108 153 93 q 163 137 153 124 q 194 150 174 150 q 308 157 246 150 q 426 181 371 164 q 519 229 482 199 q 557 307 557 260 q 525 363 557 338 q 440 403 493 388 q 324 418 389 417 q 192 404 258 419 q 166 410 176 400 q 151 433 156 419 q 156 463 149 447 q 186 488 163 478 q 249 519 213 499 q 319 565 286 539 q 376 626 353 593 q 400 694 400 658 z "},"4":{"ha":667,"x_min":32,"x_max":660,"o":"m 647 428 q 574 344 615 383 q 483 274 533 304 q 372 225 432 243 q 243 207 311 207 q 171 222 208 207 q 103 272 133 238 q 51 359 71 306 q 32 488 32 413 q 37 575 32 526 q 51 674 42 624 q 72 766 60 722 q 100 840 85 810 q 126 869 110 863 q 157 872 142 876 q 178 853 171 867 q 178 821 186 839 q 151 739 163 783 q 132 649 140 694 q 119 563 124 604 q 115 490 115 521 q 156 339 115 385 q 243 293 196 293 q 442 349 356 293 q 588 488 529 406 q 615 503 599 504 q 642 493 631 503 q 656 464 653 482 q 647 428 660 446 m 485 74 q 474 40 486 51 q 446 28 463 28 q 417 38 431 26 q 400 74 403 49 q 386 226 392 147 q 378 381 381 304 q 377 531 375 458 q 386 664 379 603 q 403 694 389 685 q 432 701 417 704 q 458 683 447 699 q 465 640 469 668 q 456 516 457 583 q 458 376 454 449 q 469 226 463 303 q 485 74 476 149 z "},"5":{"ha":569,"x_min":53,"x_max":551,"o":"m 506 743 q 407 740 460 740 q 300 742 354 740 q 195 748 247 744 q 100 758 143 751 q 64 777 75 763 q 54 807 53 792 q 69 835 56 824 q 106 843 82 846 q 302 824 193 831 q 506 824 411 817 q 539 813 528 825 q 551 786 550 801 q 540 757 551 771 q 506 743 528 743 m 514 315 q 474 196 514 242 q 376 124 435 150 q 250 89 318 99 q 126 79 182 79 q 94 92 104 79 q 83 121 83 104 q 94 149 83 136 q 126 163 104 163 q 221 169 168 163 q 321 194 274 176 q 399 242 367 213 q 431 315 431 271 q 395 400 431 371 q 310 440 360 429 q 203 450 258 451 q 106 444 147 449 q 72 456 89 442 q 56 490 56 469 q 65 567 56 525 q 89 651 74 608 q 124 734 104 694 q 167 806 144 774 q 194 823 178 822 q 221 814 210 824 q 238 787 233 804 q 229 753 242 769 q 171 642 196 707 q 146 529 146 576 q 252 528 189 531 q 374 506 315 526 q 472 442 431 486 q 514 315 514 397 z "},"6":{"ha":556,"x_min":35,"x_max":525,"o":"m 525 331 q 505 224 525 271 q 451 143 485 176 q 375 92 418 110 q 286 74 332 74 q 194 92 239 74 q 114 151 149 111 q 56 249 78 190 q 35 388 35 308 q 47 511 35 447 q 82 638 60 575 q 131 755 103 699 q 192 854 160 811 q 222 875 206 872 q 251 869 239 878 q 267 844 264 861 q 257 807 271 828 q 158 613 201 724 q 115 382 115 501 q 131 275 115 318 q 174 206 147 232 q 228 168 199 179 q 286 157 258 157 q 342 169 314 157 q 392 206 369 182 q 426 261 413 229 q 440 331 440 293 q 433 373 440 349 q 410 418 426 397 q 369 455 394 440 q 308 469 344 469 q 259 455 283 469 q 221 424 235 440 q 194 406 208 407 q 168 414 179 406 q 155 438 158 422 q 163 472 151 453 q 220 528 178 506 q 306 550 263 550 q 408 528 365 550 q 475 472 450 506 q 513 401 501 439 q 525 331 525 363 z "},"7":{"ha":625,"x_min":35,"x_max":592,"o":"m 126 590 q 103 559 119 567 q 71 554 88 551 q 45 572 56 558 q 40 604 35 585 q 55 685 49 638 q 64 775 61 732 q 70 850 68 819 q 72 881 72 881 q 85 910 72 900 q 114 921 99 921 q 143 910 129 921 q 157 881 157 900 q 156 847 157 881 q 150 768 154 814 q 141 672 147 721 q 126 590 135 622 m 576 783 q 500 647 531 725 q 451 482 469 569 q 426 298 433 393 q 419 111 419 203 q 406 76 419 88 q 375 65 392 65 q 345 76 358 65 q 332 111 332 88 q 341 302 332 204 q 368 489 350 400 q 412 651 386 578 q 471 769 438 724 q 303 758 392 757 q 126 772 214 760 q 93 790 103 775 q 85 819 83 804 q 99 847 86 835 q 138 857 113 858 q 330 843 221 842 q 543 861 439 844 q 585 835 578 865 q 576 783 592 804 z "},"8":{"ha":556,"x_min":35,"x_max":519,"o":"m 238 424 q 152 351 186 390 q 118 258 118 313 q 154 180 118 213 q 249 147 190 147 q 340 178 297 147 q 383 256 383 210 q 339 351 383 314 q 238 424 294 388 m 164 472 q 94 546 122 504 q 67 650 67 588 q 74 713 67 681 q 99 772 82 746 q 138 819 114 800 q 194 843 163 838 q 226 836 214 847 q 243 808 239 825 q 238 778 246 793 q 208 761 229 764 q 163 719 174 754 q 151 650 151 685 q 174 573 151 604 q 235 518 197 542 q 308 562 272 540 q 374 606 344 583 q 419 649 401 626 q 438 697 438 671 q 398 786 438 757 q 308 815 358 815 q 277 828 288 815 q 267 857 267 842 q 277 886 267 872 q 308 900 288 900 q 387 888 349 900 q 454 849 425 875 q 501 785 483 824 q 519 694 519 746 q 501 622 519 654 q 454 564 483 590 q 388 515 425 538 q 314 469 351 492 q 370 432 343 451 q 419 388 397 413 q 455 330 442 363 q 468 256 468 297 q 450 179 468 214 q 403 119 432 144 q 333 79 372 93 q 249 65 293 65 q 156 81 196 65 q 89 124 117 97 q 49 186 63 151 q 35 258 35 221 q 73 380 35 329 q 164 472 111 431 z "},"9":{"ha":556,"x_min":29,"x_max":517,"o":"m 29 624 q 49 729 29 682 q 103 810 69 776 q 179 862 136 843 q 268 881 222 881 q 357 861 313 881 q 438 803 401 842 q 494 704 472 763 q 517 567 517 646 q 503 442 517 506 q 469 315 490 378 q 419 199 447 254 q 363 101 392 143 q 331 78 347 82 q 301 83 314 75 q 285 108 289 92 q 294 147 281 125 q 392 341 349 231 q 435 572 435 451 q 418 678 435 635 q 376 747 401 721 q 322 785 351 774 q 268 797 293 797 q 160 748 208 797 q 113 624 113 699 q 119 580 113 604 q 142 535 126 556 q 183 499 158 513 q 246 485 208 485 q 292 499 267 485 q 329 532 317 513 q 356 547 342 546 q 382 540 371 549 q 397 516 393 532 q 392 482 400 500 q 331 426 374 447 q 246 404 288 404 q 144 426 185 404 q 76 481 103 447 q 40 552 51 514 q 29 624 29 590 z "}," ":{"ha":361,"x_min":0,"x_max":0,"o":""},"!":{"ha":403,"x_min":57,"x_max":349,"o":"m 325 881 q 349 737 349 817 q 332 576 349 657 q 285 424 315 496 q 219 304 256 351 q 186 283 208 285 q 143 299 164 282 q 99 386 119 329 q 68 506 78 443 q 60 625 57 568 q 89 715 63 682 q 115 726 101 724 q 140 724 128 728 q 158 715 149 721 q 171 704 167 710 q 172 718 171 711 q 175 732 174 725 q 178 745 176 739 q 181 758 179 751 q 190 800 182 775 q 213 847 199 825 q 246 887 226 871 q 289 903 265 903 q 308 894 299 900 q 325 881 317 889 m 274 139 q 251 80 275 104 q 194 54 228 56 q 136 74 160 51 q 111 131 113 96 q 130 189 108 164 q 186 217 151 214 q 245 195 219 218 q 274 139 271 172 m 268 803 q 247 744 256 782 q 235 661 239 707 q 228 562 231 614 q 225 461 226 510 q 226 467 225 464 q 228 472 228 469 q 231 477 229 475 q 232 482 232 479 q 272 636 257 556 q 268 803 288 717 m 160 431 q 159 486 160 460 q 157 539 158 513 q 154 578 156 560 q 151 613 153 597 q 144 635 149 626 q 132 644 140 644 q 124 632 125 644 q 125 603 124 619 q 129 567 126 585 q 135 536 132 549 q 145 481 139 507 q 160 431 151 456 z "},"\"":{"ha":403,"x_min":56,"x_max":346,"o":"m 346 843 q 333 812 346 822 q 304 801 319 801 q 275 812 288 801 q 263 843 263 822 q 263 879 263 861 q 261 917 263 897 q 256 952 260 935 q 246 986 253 969 q 245 1021 238 1006 q 268 1042 253 1036 q 300 1042 283 1047 q 325 1017 317 1036 q 342 933 338 979 q 346 843 346 888 m 164 843 q 151 812 164 822 q 122 801 138 801 q 93 812 106 801 q 81 843 81 822 q 81 879 81 861 q 79 917 81 897 q 74 952 78 935 q 64 986 71 969 q 64 1021 56 1006 q 86 1042 72 1036 q 118 1042 101 1047 q 143 1017 135 1036 q 161 933 158 979 q 164 843 164 888 z "},"#":{"ha":764,"x_min":39,"x_max":715,"o":"m 674 588 q 522 570 592 576 q 389 561 453 564 q 260 556 324 557 q 125 556 196 556 q 90 569 101 556 q 79 597 79 582 q 90 626 78 613 q 125 640 101 640 q 258 641 196 640 q 383 644 321 642 q 515 653 447 647 q 663 672 582 660 q 698 665 685 676 q 714 636 711 653 q 706 606 715 621 q 674 588 696 590 m 325 813 q 308 626 315 714 q 288 453 300 538 q 254 281 275 367 q 200 101 233 194 q 176 74 192 81 q 146 71 160 67 q 122 87 131 74 q 119 119 113 100 q 173 299 153 214 q 206 467 193 383 q 226 637 218 550 q 243 824 233 724 q 259 853 244 844 q 289 860 274 863 q 316 846 304 858 q 325 813 328 833 m 629 319 q 480 303 549 308 q 346 296 411 299 q 217 293 282 293 q 81 293 153 293 q 49 306 60 293 q 39 333 39 318 q 49 360 39 347 q 81 374 60 374 q 216 374 153 374 q 342 376 279 374 q 472 385 406 379 q 619 404 539 392 q 656 397 643 408 q 672 369 669 385 q 663 339 674 354 q 629 319 653 324 m 576 813 q 557 630 567 718 q 533 456 547 542 q 499 282 519 369 q 449 101 479 194 q 426 74 442 81 q 396 71 410 67 q 372 87 381 74 q 369 119 363 100 q 419 296 400 210 q 451 467 439 382 q 474 641 465 553 q 492 824 482 729 q 507 853 493 844 q 538 860 521 863 q 565 846 553 858 q 576 813 578 833 z "},"$":{"ha":625,"x_min":51,"x_max":590,"o":"m 590 282 q 560 185 590 225 q 489 118 531 144 q 403 81 447 93 q 329 68 358 68 q 247 70 282 68 q 182 79 211 72 q 126 99 153 86 q 72 133 100 111 q 53 163 56 146 q 60 192 51 179 q 83 208 67 204 q 118 201 99 213 q 202 161 160 172 q 319 150 244 150 q 369 160 338 150 q 431 188 401 169 q 483 229 461 206 q 506 282 506 253 q 488 344 506 318 q 440 390 469 369 q 374 427 411 410 q 299 463 336 444 q 222 501 260 479 q 156 550 185 522 q 109 617 126 579 q 92 710 92 656 q 132 819 92 778 q 232 874 172 860 q 356 874 290 886 q 471 826 421 863 q 494 792 490 811 q 492 760 499 774 q 468 742 483 746 q 435 751 453 738 q 353 787 399 776 q 268 793 308 797 q 199 767 226 788 q 172 710 172 746 q 190 641 172 669 q 238 590 207 613 q 304 551 267 568 q 381 515 342 533 q 457 477 419 497 q 524 431 494 457 q 572 367 554 403 q 590 282 590 331 m 354 31 q 339 -4 353 7 q 310 -14 325 -15 q 282 -1 294 -12 q 271 31 269 10 q 277 251 275 136 q 276 479 279 365 q 265 703 274 593 q 243 911 257 813 q 250 946 239 932 q 278 963 261 960 q 308 956 293 965 q 326 924 324 946 q 344 715 338 826 q 356 486 351 603 q 358 253 358 369 q 354 31 358 136 z "},"%":{"ha":958,"x_min":35,"x_max":913,"o":"m 611 824 q 483 437 554 614 q 325 76 411 260 q 300 54 317 57 q 268 58 283 51 q 247 80 254 65 q 249 114 239 94 q 334 294 294 207 q 410 469 374 382 q 475 649 444 557 q 533 846 506 742 q 553 872 538 865 q 582 875 568 879 q 607 857 597 871 q 611 824 617 843 m 140 472 q 132 478 136 474 q 124 488 128 482 q 99 526 114 506 q 69 572 85 547 q 45 624 56 596 q 35 686 35 651 q 57 765 35 728 q 126 803 79 803 q 169 782 149 803 q 206 740 190 761 q 251 800 225 774 q 311 826 278 826 q 368 788 353 826 q 383 713 383 750 q 365 634 383 672 q 318 561 346 596 q 261 491 292 525 q 208 426 231 457 q 181 408 196 410 q 153 415 165 407 q 135 439 140 424 q 140 472 131 454 m 294 718 q 274 706 282 718 q 263 686 267 694 q 256 667 258 676 q 251 647 254 657 q 245 624 249 636 q 238 596 242 611 q 269 633 254 613 q 293 674 283 654 q 303 705 301 692 q 294 718 304 718 m 126 713 q 112 695 114 713 q 110 664 110 678 q 116 642 110 657 q 132 608 122 626 q 151 573 140 590 q 172 547 163 556 q 158 663 172 613 q 126 713 143 713 m 665 139 q 657 144 661 140 q 651 157 653 149 q 626 195 642 175 q 596 240 611 215 q 570 292 581 264 q 560 353 560 319 q 583 432 560 394 q 651 469 606 469 q 697 449 676 469 q 731 407 718 428 q 778 467 751 440 q 839 493 804 493 q 897 455 881 493 q 913 379 913 417 q 893 301 913 339 q 846 228 874 263 q 788 158 818 192 q 736 93 758 124 q 708 75 724 76 q 679 82 692 74 q 661 106 667 90 q 665 139 656 121 m 822 388 q 800 375 808 388 q 788 353 792 363 q 781 335 783 344 q 776 314 779 325 q 770 291 774 304 q 763 264 767 278 q 796 301 781 279 q 821 342 811 322 q 831 374 831 360 q 822 388 832 388 m 654 379 q 640 362 642 379 q 639 331 639 344 q 644 308 639 324 q 660 275 650 293 q 680 240 669 257 q 699 214 690 222 q 683 329 699 279 q 654 379 668 379 z "},"&":{"ha":750,"x_min":22,"x_max":742,"o":"m 711 160 q 735 138 729 153 q 736 107 742 122 q 718 84 732 93 q 686 82 704 75 q 492 172 588 113 q 319 307 396 231 q 197 469 244 382 q 150 643 150 556 q 163 720 150 679 q 204 796 176 761 q 272 854 231 831 q 367 878 313 878 q 482 835 435 878 q 529 697 529 793 q 510 619 529 653 q 463 558 492 586 q 395 508 433 531 q 318 465 357 486 q 240 424 278 444 q 172 378 201 403 q 125 326 143 354 q 107 261 107 297 q 144 180 107 210 q 233 150 181 150 q 350 183 299 150 q 426 258 401 217 q 453 278 436 276 q 483 272 469 281 q 503 248 497 264 q 497 214 508 232 q 393 113 461 157 q 233 68 325 68 q 168 78 204 68 q 99 110 132 88 q 44 169 67 132 q 22 261 22 207 q 40 345 22 308 q 88 413 58 382 q 155 466 117 442 q 233 511 193 490 q 310 552 272 532 q 378 593 349 572 q 426 640 407 615 q 444 697 444 665 q 426 768 444 744 q 364 792 408 792 q 306 776 331 792 q 265 739 282 761 q 241 690 249 717 q 233 643 233 664 q 277 491 233 565 q 390 351 321 417 q 544 237 460 288 q 711 160 629 186 z "},"'":{"ha":264,"x_min":69,"x_max":178,"o":"m 178 843 q 165 812 178 822 q 138 801 151 801 q 110 812 122 801 q 97 843 97 822 q 94 916 97 879 q 78 986 92 953 q 77 1021 69 1006 q 100 1042 85 1036 q 132 1042 115 1047 q 157 1017 149 1036 q 175 933 172 979 q 178 843 178 888 z "},"(":{"ha":417,"x_min":135,"x_max":372,"o":"m 351 897 q 299 792 324 843 q 257 686 275 740 q 229 570 239 631 q 219 439 219 510 q 247 238 219 339 q 357 49 275 136 q 371 13 372 31 q 360 -15 369 -4 q 333 -28 349 -26 q 303 -12 317 -29 q 173 203 211 83 q 135 439 135 322 q 180 710 135 589 q 278 935 225 831 q 303 956 286 953 q 333 951 319 958 q 353 930 346 944 q 351 897 360 915 z "},")":{"ha":417,"x_min":47,"x_max":286,"o":"m 286 439 q 249 203 286 322 q 121 -12 213 83 q 88 -28 106 -29 q 61 -15 71 -26 q 49 13 50 -4 q 64 49 47 31 q 176 238 147 136 q 206 439 206 339 q 194 570 206 510 q 165 686 183 631 q 122 792 147 740 q 69 897 97 843 q 67 930 60 915 q 89 951 75 944 q 119 956 103 958 q 146 935 136 953 q 242 710 199 831 q 286 439 286 589 z "},"*":{"ha":556,"x_min":43,"x_max":511,"o":"m 474 456 q 278 438 383 440 q 89 439 174 435 q 56 453 68 439 q 43 483 44 467 q 53 511 43 499 q 89 524 64 524 q 273 522 169 519 q 463 539 376 525 q 495 531 483 542 q 510 504 507 519 q 502 474 511 489 q 474 456 493 460 m 208 282 q 178 259 196 263 q 147 264 161 256 q 128 288 133 272 q 135 322 124 303 q 176 395 153 357 q 222 476 199 433 q 269 567 246 519 q 317 667 293 614 q 340 693 324 688 q 369 692 356 699 q 390 670 383 686 q 389 635 397 654 q 296 440 343 528 q 208 282 249 353 m 408 325 q 413 290 418 306 q 393 268 407 275 q 363 263 379 260 q 335 285 346 265 q 293 357 315 318 q 246 439 271 396 q 192 526 221 481 q 129 618 163 571 q 117 651 114 635 q 133 675 121 667 q 163 681 146 683 q 192 661 179 679 q 313 484 260 569 q 408 325 365 399 z "},"+":{"ha":625,"x_min":36,"x_max":588,"o":"m 549 456 q 322 437 439 439 q 81 439 206 435 q 49 452 60 439 q 38 482 38 465 q 47 510 36 497 q 81 524 57 524 q 315 519 204 517 q 542 539 426 522 q 573 530 561 542 q 586 503 585 518 q 578 473 588 488 q 549 456 569 458 m 340 196 q 325 162 339 172 q 296 151 311 151 q 268 163 281 151 q 257 196 256 174 q 260 344 258 274 q 261 483 261 415 q 255 619 260 551 q 240 761 250 688 q 248 794 236 783 q 275 806 260 806 q 306 797 292 807 q 322 767 319 786 q 341 486 338 621 q 340 196 344 351 z "},",":{"ha":326,"x_min":85,"x_max":251,"o":"m 164 54 q 110 76 131 54 q 89 131 90 97 q 107 189 85 164 q 164 217 129 214 q 225 195 199 218 q 251 139 251 172 q 251 135 251 139 q 251 131 251 132 l 251 131 q 243 77 251 106 q 222 22 235 49 q 193 -26 210 -4 q 160 -61 176 -49 q 133 -72 144 -74 q 114 -61 121 -71 q 110 -39 108 -53 q 124 -12 111 -25 q 146 13 133 -4 q 164 54 158 29 z "},"-":{"ha":625,"x_min":42,"x_max":593,"o":"m 554 456 q 328 437 444 439 q 86 439 211 435 q 54 452 65 439 q 43 482 43 465 q 52 510 42 497 q 86 524 63 524 q 321 519 210 517 q 546 539 432 522 q 577 530 565 542 q 592 503 589 518 q 584 473 593 488 q 554 456 575 458 z "},".":{"ha":326,"x_min":85,"x_max":253,"o":"m 251 139 q 229 80 253 104 q 172 54 206 56 q 114 74 138 51 q 89 131 90 96 q 107 189 85 164 q 164 217 129 214 q 224 195 199 218 q 251 139 249 172 z "},"/":{"ha":493,"x_min":47,"x_max":450,"o":"m 446 881 q 311 428 389 660 q 129 -49 233 197 q 106 -72 121 -68 q 76 -68 90 -75 q 55 -45 63 -61 q 56 -10 47 -29 q 229 461 156 233 q 365 903 303 689 q 386 929 371 922 q 415 932 401 936 q 440 914 431 928 q 446 881 450 900 z "},":":{"ha":326,"x_min":85,"x_max":253,"o":"m 251 139 q 229 80 253 104 q 172 54 206 56 q 114 74 138 51 q 89 131 90 96 q 107 189 85 164 q 164 217 129 214 q 224 195 199 218 q 251 139 249 172 m 251 694 q 229 633 253 658 q 172 607 206 608 q 114 628 138 604 q 89 686 90 651 q 107 744 85 719 q 164 772 129 769 q 224 751 199 774 q 251 694 249 728 z "},";":{"ha":326,"x_min":85,"x_max":253,"o":"m 251 694 q 229 633 253 658 q 172 607 206 608 q 114 628 138 604 q 89 686 90 651 q 107 744 85 719 q 164 772 129 769 q 224 751 199 774 q 251 694 249 728 m 164 54 q 110 76 131 54 q 89 131 90 97 q 107 189 85 164 q 164 217 129 214 q 225 195 199 218 q 251 139 251 172 q 251 135 251 139 q 251 131 251 132 l 251 131 q 243 77 251 106 q 222 22 235 49 q 193 -26 210 -4 q 160 -61 176 -49 q 133 -72 144 -74 q 114 -61 121 -71 q 110 -39 108 -53 q 124 -12 111 -25 q 146 13 133 -4 q 164 54 158 29 z "},"<":{"ha":514,"x_min":51,"x_max":486,"o":"m 460 22 q 484 -12 482 6 q 478 -43 486 -31 q 451 -59 468 -56 q 419 -49 435 -62 q 231 113 315 31 q 92 265 147 194 q 53 350 54 310 q 81 436 51 390 q 212 635 139 532 q 346 815 285 738 q 378 834 361 833 q 407 825 396 835 q 419 794 418 814 q 406 756 421 775 q 271 583 336 672 q 151 401 206 493 q 138 363 139 385 q 154 319 138 342 q 282 174 204 249 q 460 22 360 99 z "},"=":{"ha":583,"x_min":15,"x_max":567,"o":"m 528 553 q 300 534 417 536 q 58 536 183 532 q 26 549 38 536 q 15 579 15 563 q 26 608 15 594 q 58 621 36 621 q 294 615 182 613 q 519 638 406 618 q 551 627 539 639 q 565 600 563 615 q 558 570 567 585 q 528 553 549 556 m 528 318 q 300 299 417 301 q 58 301 183 297 q 26 315 38 301 q 15 343 15 328 q 26 371 15 358 q 58 382 36 383 q 294 378 182 375 q 519 401 406 382 q 551 392 539 404 q 565 365 563 381 q 558 334 567 349 q 528 318 549 319 z "},">":{"ha":514,"x_min":36,"x_max":472,"o":"m 443 436 q 471 350 472 390 q 433 265 469 310 q 292 113 375 194 q 106 -49 208 31 q 72 -59 89 -62 q 44 -43 54 -56 q 38 -12 36 -31 q 64 22 40 6 q 242 174 164 99 q 371 319 319 249 q 385 363 386 342 q 376 401 385 385 q 253 583 318 493 q 118 756 188 672 q 103 794 101 775 q 115 825 104 814 q 144 834 126 835 q 178 815 161 833 q 312 635 239 738 q 443 436 385 532 z "},"?":{"ha":611,"x_min":61,"x_max":574,"o":"m 574 667 q 556 593 574 626 q 513 532 538 560 q 462 481 488 504 q 422 439 436 457 q 382 383 401 417 q 363 322 363 349 q 349 289 363 300 q 321 276 336 278 q 293 287 306 276 q 281 319 281 297 q 306 409 281 360 q 357 488 332 458 q 394 526 371 506 q 439 569 417 547 q 476 617 460 593 q 492 667 492 642 q 451 767 492 726 q 324 810 410 808 q 251 791 285 808 q 192 747 217 774 q 153 689 167 721 q 139 628 139 657 q 128 594 139 607 q 103 582 117 582 q 78 591 90 581 q 63 628 65 601 q 79 708 61 663 q 131 794 97 754 q 213 863 165 835 q 321 892 261 892 q 509 826 446 892 q 574 667 572 760 m 403 153 q 383 94 404 119 q 326 68 361 69 q 267 88 292 65 q 240 144 242 111 q 260 203 238 178 q 319 231 283 228 q 376 209 351 232 q 403 153 400 186 z "},"@":{"ha":1000,"x_min":29,"x_max":971,"o":"m 668 382 q 579 261 642 311 q 443 211 517 211 q 359 222 399 211 q 290 256 319 232 q 243 317 260 279 q 226 413 226 356 q 249 533 226 479 q 307 625 271 586 q 386 683 342 663 q 474 704 431 704 q 572 679 529 704 q 642 621 614 654 q 653 581 656 600 q 638 551 650 563 q 606 544 625 542 q 574 569 588 546 q 535 604 561 585 q 474 624 510 624 q 414 608 443 624 q 363 564 385 592 q 325 497 339 536 q 311 413 311 458 q 323 352 311 375 q 353 317 335 329 q 396 300 372 304 q 443 296 419 296 q 501 313 472 296 q 554 356 531 329 q 593 412 578 382 q 608 469 608 442 q 637 515 608 506 q 685 496 665 525 q 717 440 699 469 q 754 386 735 411 q 792 344 772 361 q 831 328 811 328 q 868 349 854 328 q 888 404 882 371 q 892 475 893 438 q 885 544 890 513 q 833 666 871 611 q 742 760 796 721 q 623 822 689 800 q 488 843 557 843 q 332 810 401 843 q 213 722 263 776 q 136 593 163 667 q 110 439 110 519 q 139 270 110 343 q 218 147 168 197 q 339 72 269 97 q 489 47 408 47 q 547 54 514 47 q 613 74 581 61 q 672 103 644 86 q 714 139 699 119 q 743 155 726 154 q 771 146 760 156 q 786 120 782 136 q 779 88 790 104 q 726 35 760 58 q 651 -4 692 13 q 568 -29 611 -21 q 489 -37 525 -37 q 297 -1 382 -37 q 153 99 211 35 q 61 249 93 163 q 29 439 29 336 q 62 632 29 543 q 154 786 94 721 q 299 889 214 851 q 488 926 383 926 q 656 899 575 926 q 799 825 736 872 q 906 711 863 776 q 961 569 949 646 q 968 450 971 508 q 950 346 965 392 q 905 272 935 300 q 831 244 875 244 q 739 286 776 244 q 668 382 701 328 z "},"A":{"ha":701,"x_min":43,"x_max":657,"o":"m 657 128 q 644 95 657 107 q 615 82 631 83 q 586 92 599 82 q 574 128 574 103 q 557 308 574 215 q 515 490 540 401 q 461 656 490 578 q 406 794 432 735 q 403 831 396 815 q 426 851 411 846 q 458 851 440 857 q 485 826 475 846 q 543 682 513 765 q 599 506 574 599 q 640 315 624 413 q 657 128 657 218 m 582 344 q 501 349 546 347 q 411 351 457 351 q 321 350 365 351 q 243 344 276 349 q 207 351 219 340 q 193 378 194 363 q 201 406 192 392 q 232 424 211 419 q 313 431 267 429 q 407 433 358 433 q 501 431 456 433 q 582 426 547 429 q 610 408 600 422 q 619 379 619 394 q 610 353 619 364 q 582 344 600 342 m 381 840 q 278 419 343 624 q 126 51 214 215 q 97 22 114 28 q 67 25 81 17 q 49 49 54 32 q 54 88 43 65 q 128 259 92 167 q 197 450 165 351 q 255 651 229 549 q 297 854 281 753 q 316 886 301 878 q 346 890 331 894 q 372 874 361 888 q 381 840 383 860 z "},"B":{"ha":653,"x_min":39,"x_max":608,"o":"m 608 350 q 563 243 608 290 q 447 158 517 196 q 297 97 378 122 q 146 60 217 72 q 114 65 126 56 q 99 90 101 75 q 103 121 96 106 q 132 142 111 136 q 246 172 179 151 q 374 222 313 193 q 476 283 433 250 q 519 350 519 317 q 490 399 519 379 q 424 429 461 418 q 345 445 385 440 q 283 450 306 450 q 245 459 258 449 q 229 485 232 469 q 234 513 226 499 q 260 535 242 528 q 325 563 286 544 q 400 603 364 581 q 462 649 436 625 q 488 697 488 674 q 475 733 488 717 q 443 758 463 749 q 401 775 424 769 q 357 781 378 781 q 308 775 336 781 q 249 761 279 769 q 191 741 218 753 q 146 715 164 729 q 113 706 128 701 q 90 724 99 711 q 85 753 83 736 q 103 783 86 771 q 218 843 149 819 q 357 867 288 867 q 425 858 386 867 q 497 829 464 849 q 556 778 532 808 q 579 704 579 747 q 560 637 579 667 q 511 583 540 607 q 449 542 483 560 q 386 513 415 524 q 468 499 428 511 q 539 467 508 488 q 590 415 571 444 q 608 350 608 386 m 186 222 q 173 182 186 196 q 144 167 160 168 q 115 178 128 165 q 103 217 103 190 q 98 381 103 293 q 85 557 93 469 q 67 725 78 644 q 43 869 56 806 q 49 903 39 890 q 75 919 60 917 q 104 915 89 924 q 124 886 119 907 q 148 738 136 821 q 168 567 160 656 q 181 388 176 478 q 186 222 186 299 z "},"C":{"ha":660,"x_min":24,"x_max":632,"o":"m 571 85 q 393 101 489 85 q 215 154 297 117 q 78 254 133 192 q 24 410 24 317 q 68 542 24 474 q 179 669 113 610 q 324 778 246 731 q 471 854 403 826 q 516 856 499 864 q 539 831 533 847 q 538 796 544 814 q 508 769 531 778 q 382 705 450 747 q 254 611 314 663 q 157 506 196 560 q 118 410 118 453 q 166 304 118 349 q 285 232 214 260 q 433 190 354 203 q 574 176 513 176 q 617 162 603 176 q 632 131 632 147 q 617 99 632 113 q 571 85 601 85 z "},"D":{"ha":688,"x_min":61,"x_max":644,"o":"m 644 561 q 618 409 644 490 q 543 254 592 328 q 429 122 496 181 q 283 39 363 64 q 237 39 254 29 q 214 65 219 49 q 217 99 208 82 q 249 125 225 117 q 370 196 315 147 q 465 306 425 244 q 526 433 504 367 q 549 561 549 500 q 513 665 549 624 q 418 731 476 706 q 287 765 360 754 q 140 775 214 775 q 95 790 110 775 q 81 822 81 804 q 96 854 81 839 q 143 869 111 869 q 322 856 232 869 q 483 807 411 842 q 599 712 554 771 q 644 561 644 653 m 189 153 q 175 117 189 129 q 144 104 161 106 q 114 115 128 103 q 100 153 100 126 q 88 525 96 351 q 64 857 81 699 q 74 896 61 882 q 106 911 88 910 q 139 900 124 913 q 157 861 154 888 q 178 530 172 707 q 189 153 185 353 z "},"E":{"ha":660,"x_min":31,"x_max":610,"o":"m 531 789 q 311 765 432 765 q 75 769 190 765 q 41 783 51 769 q 32 814 31 797 q 43 842 32 829 q 75 854 54 854 q 301 847 190 847 q 517 872 413 847 q 553 867 539 876 q 571 842 568 857 q 565 810 575 826 q 531 789 556 794 m 585 147 q 536 120 565 132 q 472 100 507 108 q 404 86 439 90 q 343 82 369 82 q 257 91 299 82 q 181 122 215 100 q 122 179 146 143 q 92 268 99 215 q 81 380 83 310 q 82 526 79 450 q 90 677 83 603 q 106 803 96 751 q 122 833 107 824 q 150 840 136 842 q 176 827 165 839 q 183 794 188 815 q 171 672 175 740 q 165 532 167 603 q 166 394 164 460 q 175 282 168 328 q 235 190 183 215 q 343 165 286 165 q 394 169 365 165 q 451 181 424 174 q 501 197 478 188 q 536 217 524 206 q 570 228 554 232 q 594 210 586 224 q 601 178 603 196 q 585 147 599 160 m 571 461 q 351 438 461 442 q 132 444 240 433 q 98 460 108 446 q 88 489 88 474 q 99 517 88 506 q 132 529 110 529 q 346 524 239 518 q 557 544 453 531 q 592 536 579 547 q 608 510 606 525 q 601 480 610 494 q 571 461 592 465 z "},"F":{"ha":660,"x_min":39,"x_max":603,"o":"m 551 800 q 322 783 450 783 q 81 792 193 783 q 49 807 58 793 q 39 836 39 821 q 51 863 40 851 q 81 875 61 875 q 319 867 196 864 q 543 881 443 869 q 581 872 567 883 q 597 846 594 861 q 588 816 599 831 q 551 800 576 801 m 554 439 q 370 451 472 449 q 181 444 268 454 q 149 452 160 440 q 138 479 138 464 q 146 510 136 496 q 178 526 156 524 q 268 531 219 529 q 367 532 317 532 q 465 530 417 532 q 554 524 513 528 q 592 505 581 519 q 601 475 603 490 q 587 447 600 458 q 554 439 574 435 m 211 106 q 197 72 211 83 q 168 61 183 61 q 140 72 153 61 q 126 103 126 82 q 126 296 126 190 q 124 501 126 401 q 112 683 119 601 q 89 807 104 765 q 88 842 81 826 q 108 864 94 857 q 140 863 124 869 q 167 835 156 857 q 192 703 183 790 q 206 513 201 617 q 210 300 210 408 q 211 106 211 192 z "},"G":{"ha":819,"x_min":43,"x_max":801,"o":"m 756 376 q 600 380 688 376 q 435 399 513 383 q 395 417 406 403 q 388 447 385 432 q 404 474 390 464 q 440 481 418 485 q 519 468 478 472 q 603 463 561 464 q 683 460 644 460 q 756 461 722 461 q 788 447 776 461 q 801 418 800 433 q 790 390 801 403 q 756 376 779 376 m 611 207 q 512 119 581 160 q 360 79 443 79 q 215 110 275 79 q 117 192 154 142 q 60 305 78 242 q 43 431 43 368 q 69 590 43 510 q 150 732 94 669 q 292 835 206 796 q 500 875 379 875 q 533 862 521 875 q 544 833 544 849 q 536 804 546 817 q 506 792 526 792 q 328 759 400 792 q 211 675 256 726 q 146 558 165 622 q 126 431 126 494 q 140 331 126 379 q 182 246 154 283 q 255 185 211 208 q 360 163 299 163 q 419 172 388 163 q 478 196 450 181 q 528 231 507 211 q 560 274 550 251 q 581 291 568 292 q 604 278 593 290 q 617 244 614 264 q 611 207 621 225 m 642 17 q 628 -15 642 -4 q 600 -25 615 -25 q 572 -15 585 -25 q 560 17 560 -4 q 556 200 560 110 q 539 407 551 290 q 547 437 535 426 q 574 447 558 447 q 603 437 589 447 q 622 407 618 426 q 638 213 635 313 q 642 17 642 113 z "},"H":{"ha":667,"x_min":54,"x_max":613,"o":"m 608 71 q 601 32 613 47 q 576 13 590 17 q 547 17 561 8 q 528 51 532 26 q 494 457 497 260 q 508 846 490 654 q 523 873 510 865 q 551 878 536 881 q 578 862 567 875 q 588 829 589 849 q 576 458 575 644 q 608 71 578 271 m 531 453 q 319 473 418 471 q 146 458 221 475 q 111 463 125 453 q 92 488 97 472 q 94 517 88 503 q 121 536 100 532 q 319 552 208 554 q 531 536 431 550 q 555 519 549 533 q 560 489 561 504 q 550 462 558 474 q 531 453 542 450 m 194 168 q 188 131 199 146 q 161 113 176 117 q 130 121 146 110 q 110 163 114 132 q 85 314 96 229 q 68 488 75 399 q 58 667 61 578 q 54 835 54 757 q 67 869 54 857 q 96 882 79 881 q 124 872 111 882 q 138 840 138 861 q 141 674 138 763 q 153 497 144 586 q 170 322 160 407 q 194 168 181 238 z "},"I":{"ha":542,"x_min":58,"x_max":478,"o":"m 406 778 q 337 774 375 775 q 260 775 299 774 q 180 779 219 776 q 110 786 140 782 q 78 803 88 789 q 71 832 69 817 q 84 859 72 847 q 115 869 96 871 q 182 863 144 865 q 258 860 219 861 q 335 858 297 858 q 406 861 374 858 q 439 849 428 861 q 451 821 450 836 q 440 792 451 806 q 406 778 428 778 m 268 142 q 249 106 264 117 q 218 99 233 96 q 191 115 203 101 q 183 153 179 129 q 216 476 208 315 q 224 803 224 636 q 236 834 224 824 q 264 844 249 844 q 292 833 279 844 q 306 800 306 822 q 297 472 306 638 q 268 142 288 306 m 435 96 q 278 92 368 96 q 106 79 189 89 q 74 88 86 76 q 61 117 63 100 q 67 147 58 132 q 100 165 76 161 q 272 176 179 174 q 435 179 365 179 q 467 166 456 179 q 478 138 478 153 q 467 108 478 121 q 435 96 457 96 z "},"J":{"ha":660,"x_min":6,"x_max":639,"o":"m 593 781 q 513 777 558 778 q 417 778 467 776 q 318 781 367 778 q 232 792 269 785 q 202 809 211 794 q 193 839 193 824 q 206 866 194 854 q 238 875 217 878 q 322 865 275 868 q 417 860 369 861 q 510 860 465 858 q 590 864 554 861 q 625 853 613 865 q 638 826 638 842 q 628 796 639 810 q 593 781 617 782 m 479 390 q 465 278 479 333 q 424 176 451 222 q 353 104 396 132 q 254 76 311 76 q 158 99 197 76 q 90 158 118 122 q 43 241 63 194 q 10 333 24 288 q 15 369 6 354 q 39 390 24 385 q 68 388 53 396 q 92 358 83 381 q 151 215 115 271 q 254 160 188 160 q 314 181 288 160 q 358 235 340 201 q 385 309 376 268 q 394 390 394 350 q 392 478 394 428 q 388 585 389 529 q 383 694 385 640 q 381 794 381 749 q 394 824 381 814 q 422 835 407 835 q 451 824 438 835 q 465 794 465 814 q 467 692 465 749 q 472 581 469 636 q 476 474 474 525 q 479 390 479 424 z "},"K":{"ha":667,"x_min":54,"x_max":636,"o":"m 560 797 q 477 692 526 747 q 374 582 428 636 q 262 481 318 528 q 160 401 206 433 q 124 394 140 389 q 97 413 107 399 q 92 444 89 426 q 115 478 94 463 q 217 554 161 508 q 325 651 272 600 q 424 756 378 703 q 500 854 471 808 q 527 874 513 874 q 553 863 542 874 q 567 833 564 851 q 560 797 571 814 m 611 157 q 633 122 631 142 q 628 90 636 103 q 601 72 618 76 q 565 82 583 67 q 374 261 460 154 q 229 482 288 368 q 219 524 215 504 q 236 554 224 543 q 265 561 249 564 q 292 539 281 558 q 435 324 364 417 q 611 157 507 232 m 58 846 q 65 878 54 865 q 90 893 75 890 q 121 887 106 896 q 140 857 136 878 q 160 688 154 775 q 168 506 167 600 q 168 314 169 413 q 167 114 167 215 q 153 76 167 89 q 125 64 140 64 q 96 76 108 64 q 83 114 83 89 q 85 310 83 214 q 86 496 86 406 q 79 675 85 588 q 58 846 74 763 z "},"L":{"ha":625,"x_min":63,"x_max":606,"o":"m 560 106 q 474 101 517 106 q 390 92 432 97 q 311 83 350 86 q 238 79 272 79 q 167 94 196 79 q 119 132 138 108 q 94 185 101 156 q 89 244 86 214 q 92 537 93 390 q 67 824 92 683 q 73 856 63 842 q 99 872 83 869 q 128 866 114 876 q 149 829 143 856 q 165 685 160 758 q 172 539 171 613 q 174 390 175 464 q 172 244 172 315 q 189 194 172 218 q 235 171 206 171 q 308 174 269 171 q 389 182 347 178 q 472 190 429 186 q 560 193 515 193 q 594 179 582 193 q 606 149 606 165 q 593 119 604 132 q 560 106 582 106 z "},"M":{"ha":847,"x_min":54,"x_max":818,"o":"m 814 108 q 807 72 818 85 q 781 56 796 58 q 749 64 764 54 q 731 99 735 74 q 706 261 717 176 q 685 428 694 346 q 667 586 675 511 q 654 721 660 661 q 593 635 626 683 q 526 532 560 586 q 461 426 493 479 q 406 331 429 374 q 364 303 390 304 q 325 325 338 303 q 259 430 292 375 q 196 536 226 485 q 134 633 164 588 q 78 713 104 679 q 68 744 65 726 q 82 772 71 761 q 106 785 92 783 q 132 772 121 788 q 188 693 160 735 q 246 607 217 651 q 302 513 274 561 q 360 418 331 465 q 494 627 418 513 q 654 849 569 742 q 703 864 675 872 q 733 824 731 856 q 750 651 742 743 q 767 464 758 558 q 788 278 776 369 q 814 108 799 186 m 164 131 q 154 97 165 110 q 128 82 143 85 q 100 88 114 79 q 83 117 86 96 q 58 444 63 276 q 54 761 54 613 q 67 793 54 782 q 94 804 79 804 q 122 794 108 804 q 135 761 135 783 q 139 451 135 615 q 164 131 143 286 z "},"N":{"ha":681,"x_min":47,"x_max":636,"o":"m 633 142 q 626 106 636 118 q 603 92 617 94 q 573 98 589 90 q 549 125 557 106 q 469 271 513 196 q 376 415 426 346 q 270 548 326 486 q 151 656 214 610 q 133 684 133 668 q 140 713 132 700 q 165 728 149 724 q 197 721 181 732 q 387 534 304 646 q 536 315 469 422 q 513 562 519 449 q 508 807 506 675 q 522 840 508 829 q 551 850 536 851 q 580 838 567 850 q 593 800 593 825 q 593 660 592 739 q 600 496 594 582 q 613 319 606 410 q 633 142 621 228 m 175 122 q 162 90 175 100 q 133 79 149 79 q 104 90 117 79 q 92 122 92 100 q 88 271 92 193 q 78 428 83 349 q 65 581 72 506 q 51 721 57 656 q 58 757 47 743 q 85 774 69 771 q 114 766 100 775 q 132 735 128 757 q 162 428 149 589 q 175 122 175 268 z "},"O":{"ha":1089,"x_min":21,"x_max":1063,"o":"m 315 922 q 542 810 411 922 q 724 922 600 922 l 792 922 q 1063 560 1063 881 q 656 39 1063 311 q 610 -29 656 -29 q 135 333 135 299 q 21 538 67 333 l 21 560 q 315 922 68 922 m 111 514 q 588 129 189 336 q 950 582 950 353 l 950 650 q 746 832 950 832 l 724 832 q 564 674 686 832 l 474 674 q 293 832 474 815 q 111 514 140 832 m 293 742 l 361 742 q 542 560 522 560 q 746 742 542 700 l 792 742 q 882 582 882 704 q 519 265 706 265 q 201 650 201 503 q 293 742 201 686 z "},"P":{"ha":688,"x_min":58,"x_max":650,"o":"m 650 610 q 592 488 650 540 q 453 403 535 436 q 278 351 371 368 q 118 333 186 333 q 85 347 96 333 q 75 375 75 360 q 85 404 75 390 q 118 418 96 418 q 268 435 189 418 q 414 481 347 453 q 524 542 481 507 q 568 610 568 576 q 542 681 568 651 q 476 728 515 710 q 391 753 438 746 q 303 761 344 761 q 272 760 289 761 q 239 758 256 758 q 209 756 222 757 q 192 756 196 756 q 158 765 169 753 q 144 792 146 776 q 152 819 143 806 q 183 838 161 833 q 200 839 186 838 q 233 840 214 840 q 272 842 251 842 q 308 843 293 843 q 423 831 363 843 q 533 790 483 818 q 617 719 583 764 q 650 610 650 674 m 163 90 q 152 55 164 67 q 125 43 140 43 q 96 53 110 42 q 78 90 82 65 q 64 270 68 174 q 60 465 60 367 q 60 660 58 564 q 67 843 63 757 q 81 878 67 867 q 111 888 94 889 q 139 874 126 886 q 151 843 151 863 q 147 665 149 760 q 146 471 146 569 q 150 274 146 372 q 163 90 154 176 z "},"Q":{"ha":778,"x_min":35,"x_max":763,"o":"m 731 147 q 757 123 751 139 q 756 93 763 107 q 734 71 750 79 q 699 71 718 63 q 591 125 643 90 q 492 204 539 160 q 407 297 446 247 q 340 396 368 346 q 335 433 329 414 q 353 461 340 451 q 381 469 365 472 q 411 444 397 467 q 551 263 465 340 q 731 147 636 185 m 679 453 q 657 318 679 382 q 594 207 635 254 q 497 131 554 158 q 371 103 440 103 q 233 125 294 103 q 126 186 171 147 q 58 282 82 226 q 35 404 35 338 q 52 535 35 475 q 99 644 69 594 q 164 733 128 693 q 238 806 200 774 q 273 819 256 821 q 301 806 290 817 q 310 778 311 794 q 294 749 310 761 q 226 681 258 717 q 169 606 193 646 q 130 514 144 564 q 115 404 115 464 q 138 305 115 346 q 197 238 160 264 q 279 199 233 211 q 371 188 325 188 q 463 208 421 188 q 533 265 504 229 q 579 351 563 303 q 596 453 596 399 q 581 535 596 497 q 539 603 565 574 q 481 651 514 632 q 411 675 447 669 q 382 692 390 678 q 375 722 374 707 q 390 749 378 738 q 422 758 401 761 q 519 726 472 751 q 600 660 565 700 q 658 567 636 619 q 679 453 679 514 z "},"R":{"ha":674,"x_min":44,"x_max":636,"o":"m 597 160 q 622 130 617 147 q 619 99 626 113 q 596 80 613 85 q 557 88 579 75 q 394 210 467 138 q 281 372 321 282 q 277 406 271 390 q 297 431 283 422 q 325 437 310 439 q 349 418 340 435 q 451 268 394 324 q 597 160 508 213 m 636 610 q 578 488 636 540 q 439 403 521 436 q 265 351 357 368 q 106 333 174 333 q 73 347 83 333 q 63 375 63 360 q 73 404 63 390 q 106 418 83 418 q 255 435 176 418 q 400 481 333 453 q 510 542 467 507 q 554 610 554 576 q 528 681 554 651 q 463 728 501 710 q 377 753 424 746 q 289 761 331 761 q 258 760 275 761 q 224 758 240 758 q 194 756 207 757 q 178 756 182 756 q 144 765 156 753 q 131 792 132 776 q 138 819 129 806 q 169 838 147 833 q 186 839 172 838 q 219 840 200 840 q 258 842 238 842 q 294 843 279 843 q 409 831 349 843 q 519 790 469 818 q 603 719 569 764 q 636 610 636 674 m 149 119 q 138 83 150 96 q 111 69 126 71 q 81 81 96 69 q 64 119 67 93 q 50 294 54 203 q 46 479 46 386 q 47 666 44 574 q 54 843 50 758 q 67 878 54 867 q 97 888 81 889 q 125 874 113 886 q 138 843 138 863 q 131 668 133 760 q 131 483 129 576 q 135 298 131 390 q 149 119 140 206 z "},"S":{"ha":639,"x_min":40,"x_max":579,"o":"m 579 282 q 549 185 579 225 q 478 118 519 144 q 392 81 436 93 q 319 68 349 68 q 237 70 272 68 q 171 79 201 72 q 115 99 142 86 q 61 133 89 111 q 42 163 44 146 q 49 192 40 179 q 72 208 56 204 q 108 201 88 213 q 192 161 150 172 q 308 150 235 150 q 358 160 326 150 q 419 188 390 169 q 472 229 450 206 q 494 282 494 253 q 476 344 494 318 q 429 390 458 369 q 363 427 400 410 q 288 463 325 444 q 211 501 249 479 q 144 550 174 522 q 98 617 115 579 q 81 710 81 656 q 121 819 81 778 q 221 874 161 860 q 344 874 279 886 q 460 826 410 863 q 483 792 479 811 q 481 760 488 774 q 458 742 474 746 q 425 751 443 738 q 343 787 389 776 q 257 793 297 797 q 190 767 217 788 q 163 710 163 746 q 180 641 163 669 q 226 590 197 613 q 293 551 256 568 q 371 515 331 533 q 447 477 410 497 q 514 431 485 457 q 561 367 543 403 q 579 282 579 331 z "},"T":{"ha":708,"x_min":14,"x_max":686,"o":"m 642 781 q 497 765 572 772 q 346 753 421 758 q 196 745 269 747 q 58 743 122 743 q 25 755 36 743 q 14 782 14 767 q 24 808 14 796 q 54 821 33 821 q 340 833 185 821 q 633 864 494 846 q 669 856 656 867 q 685 829 682 844 q 676 799 686 814 q 642 781 667 785 m 417 103 q 403 65 417 78 q 374 53 389 53 q 345 65 358 53 q 332 103 332 78 q 325 450 332 275 q 297 769 318 625 q 303 808 293 793 q 329 824 314 822 q 360 815 344 826 q 379 778 375 804 q 410 454 403 633 q 417 103 417 275 z "},"U":{"ha":708,"x_min":44,"x_max":676,"o":"m 628 333 q 573 249 604 290 q 501 174 542 207 q 407 122 460 142 q 286 101 354 101 q 124 169 175 101 q 58 342 72 238 q 58 570 44 446 q 92 807 72 694 q 109 835 94 826 q 139 840 124 843 q 165 826 154 839 q 172 794 176 814 q 138 576 153 685 q 131 381 124 467 q 172 239 136 293 q 286 185 207 185 q 374 200 333 185 q 447 242 414 215 q 506 299 481 267 q 551 367 532 332 q 578 441 568 399 q 593 528 589 483 q 592 619 596 574 q 576 701 588 664 q 579 733 569 719 q 606 749 589 746 q 636 746 621 753 q 657 721 651 739 q 672 628 667 678 q 675 526 676 578 q 661 425 672 475 q 628 333 650 375 z "},"V":{"ha":757,"x_min":31,"x_max":736,"o":"m 722 775 q 571 484 643 642 q 422 101 499 326 q 406 81 418 88 q 382 74 394 74 q 356 83 368 75 q 340 106 344 90 q 195 466 267 294 q 43 792 124 638 q 35 831 31 814 q 54 857 40 849 q 86 858 68 864 q 118 829 104 853 q 256 540 192 690 q 381 228 319 390 q 502 538 431 386 q 657 832 574 690 q 686 853 669 850 q 715 846 703 856 q 732 817 728 836 q 722 775 736 797 z "},"W":{"ha":951,"x_min":18,"x_max":924,"o":"m 910 761 q 835 646 872 713 q 761 500 797 579 q 691 338 725 422 q 628 174 657 254 q 592 142 617 143 q 554 171 568 140 q 521 258 535 206 q 496 369 507 311 q 476 485 485 428 q 463 589 468 543 q 373 358 415 486 q 297 114 331 231 q 261 86 289 88 q 221 111 233 85 q 161 261 190 174 q 107 444 132 349 q 59 633 81 539 q 24 806 38 728 q 29 846 18 831 q 56 865 40 861 q 88 862 72 869 q 108 835 104 854 q 140 679 122 761 q 178 519 158 597 q 217 372 197 440 q 257 256 238 303 q 354 538 301 399 q 463 794 407 676 q 512 824 481 828 q 543 789 543 821 q 547 667 543 733 q 556 533 550 600 q 572 406 563 467 q 593 301 581 344 q 644 436 615 367 q 706 574 672 506 q 772 701 738 640 q 839 813 806 763 q 871 835 853 833 q 901 826 889 838 q 919 798 915 817 q 910 761 924 779 z "},"X":{"ha":722,"x_min":25,"x_max":699,"o":"m 542 838 q 381 467 469 644 q 181 90 292 289 q 151 67 168 69 q 121 72 135 64 q 103 97 108 81 q 108 133 97 114 q 213 325 164 233 q 307 507 263 417 q 391 685 351 596 q 465 872 431 775 q 488 900 472 893 q 519 901 504 907 q 542 879 533 896 q 542 838 550 863 m 625 88 q 488 244 554 169 q 351 393 421 319 q 207 537 282 465 q 46 683 132 608 q 27 716 29 697 q 33 747 25 735 q 59 764 42 761 q 100 749 76 767 q 403 464 263 615 q 685 153 543 313 q 697 114 699 133 q 685 82 696 94 q 656 69 674 71 q 625 88 639 68 z "},"Y":{"ha":736,"x_min":18,"x_max":717,"o":"m 696 807 q 587 723 632 763 q 506 638 542 683 q 480 591 488 615 q 471 540 472 567 q 469 487 468 514 q 471 433 471 460 q 472 345 471 383 q 475 272 474 307 q 481 199 478 236 q 489 117 485 163 q 478 82 489 94 q 453 67 468 69 q 426 76 439 65 q 408 111 413 86 q 398 194 401 157 q 393 268 394 232 q 392 343 392 304 q 392 433 392 382 q 398 576 392 503 q 443 697 404 650 q 539 788 485 744 q 644 869 593 832 q 683 883 667 886 q 708 867 700 879 q 714 835 717 853 q 696 807 711 818 m 443 561 q 463 534 460 550 q 458 504 465 518 q 437 483 451 490 q 406 488 422 476 q 205 617 301 544 q 32 783 108 689 q 20 820 18 801 q 32 849 22 839 q 58 860 43 860 q 89 843 74 860 q 252 685 165 751 q 443 561 339 618 z "},"Z":{"ha":701,"x_min":33,"x_max":674,"o":"m 628 103 q 404 99 522 104 q 172 76 286 93 q 105 99 129 69 q 81 171 81 128 q 122 271 81 204 q 225 417 164 338 q 351 576 285 496 q 468 718 418 657 q 481 737 474 726 q 493 756 489 747 q 492 769 496 764 q 474 775 489 775 q 381 774 432 775 q 279 768 331 772 q 178 757 228 764 q 89 740 129 750 q 55 744 68 735 q 38 769 42 754 q 40 799 33 783 q 67 821 47 814 q 167 841 110 833 q 285 853 224 849 q 401 858 344 857 q 503 860 458 860 q 569 842 547 858 q 596 803 592 826 q 590 753 600 781 q 560 701 579 725 q 466 589 517 649 q 364 465 415 529 q 263 331 313 400 q 172 193 214 263 q 181 168 164 176 q 218 163 197 160 q 313 172 260 167 q 421 181 365 176 q 528 186 475 185 q 628 188 582 188 q 661 173 650 186 q 674 143 672 160 q 662 115 674 128 q 628 103 650 103 z "},"[":{"ha":451,"x_min":63,"x_max":411,"o":"m 351 861 q 290 847 322 851 q 225 842 257 843 q 162 840 193 839 q 106 840 131 840 q 73 853 83 840 q 63 882 63 865 q 73 910 63 897 q 106 924 83 924 q 219 928 153 924 q 332 946 286 933 q 365 941 351 951 q 382 915 378 931 q 378 883 385 900 q 351 861 371 867 m 379 -26 q 313 -37 347 -35 q 244 -42 279 -40 q 178 -41 210 -42 q 121 -40 146 -40 q 89 -28 100 -40 q 78 0 78 -17 q 81 214 79 100 q 82 443 82 328 q 83 665 82 557 q 83 861 83 772 q 96 878 83 872 q 125 883 108 883 q 153 878 140 883 q 167 861 167 872 q 166 664 167 771 q 165 447 165 557 q 165 232 165 338 q 163 42 164 126 q 206 41 182 42 q 256 42 231 40 q 308 45 282 43 q 357 54 333 47 q 391 50 378 60 q 408 26 404 40 q 404 -5 411 11 q 379 -26 397 -21 z "},"\\":{"ha":951,"x_min":11,"x_max":924,"o":"m 910 761 q 835 646 872 713 q 761 500 797 579 q 691 338 725 422 q 628 174 657 254 q 592 142 617 143 q 554 171 568 140 q 521 258 535 206 q 496 369 507 311 q 476 485 485 428 q 463 589 468 543 q 373 358 415 486 q 297 114 331 231 q 261 86 289 88 q 221 111 233 85 q 161 261 190 174 q 107 444 132 349 q 59 633 81 539 q 24 806 38 728 q 29 846 18 831 q 56 865 40 861 q 88 862 72 869 q 108 835 104 854 q 140 679 122 761 q 178 519 158 597 q 217 372 197 440 q 257 256 238 303 q 354 538 301 399 q 463 794 407 676 q 512 824 481 828 q 543 789 543 821 q 547 667 543 733 q 556 533 550 600 q 572 406 563 467 q 593 301 581 344 q 644 436 615 367 q 706 574 672 506 q 772 701 738 640 q 839 813 806 763 q 871 835 853 833 q 901 826 889 838 q 919 798 915 817 q 910 761 924 779 m 853 475 q 689 460 797 465 q 460 453 581 456 q 228 452 340 451 q 54 456 117 453 q 22 469 33 456 q 11 499 11 483 q 22 526 11 514 q 54 539 32 539 q 225 535 115 536 q 453 536 335 535 q 680 542 572 538 q 844 556 788 547 q 876 547 864 558 q 890 521 888 536 q 883 491 892 506 q 853 475 874 476 z "},"]":{"ha":451,"x_min":57,"x_max":406,"o":"m 365 840 q 306 840 338 840 q 242 842 275 839 q 176 847 208 843 q 115 861 143 851 q 88 883 94 867 q 83 915 81 900 q 101 941 88 931 q 135 946 114 951 q 248 928 181 933 q 365 924 315 924 q 395 910 385 924 q 406 882 406 897 q 395 853 406 865 q 365 840 385 840 m 389 0 q 379 -28 389 -17 q 349 -40 369 -40 q 289 -41 321 -40 q 224 -42 257 -42 q 155 -37 189 -40 q 92 -26 121 -35 q 65 -5 72 -21 q 60 26 57 11 q 76 50 63 40 q 110 54 89 60 q 160 45 133 47 q 211 42 186 43 q 260 41 236 40 q 306 42 285 42 q 301 232 303 126 q 300 447 300 338 q 300 664 300 557 q 300 861 300 771 q 313 878 300 872 q 342 883 325 883 q 370 878 357 883 q 383 861 383 872 q 383 665 383 772 q 385 443 383 557 q 386 214 385 328 q 389 0 388 100 z "},"^":{"ha":590,"x_min":24,"x_max":565,"o":"m 557 672 q 557 633 565 649 q 535 611 549 617 q 505 610 521 604 q 482 638 489 615 q 435 734 463 686 q 379 819 407 782 q 326 880 351 857 q 289 903 301 903 q 251 878 275 903 q 203 815 228 854 q 151 729 176 776 q 110 635 126 682 q 85 605 101 611 q 56 604 69 599 q 32 625 40 610 q 32 664 24 640 q 77 771 47 714 q 143 876 107 828 q 217 958 178 925 q 289 992 256 990 q 363 959 324 990 q 439 881 403 928 q 507 778 476 833 q 557 672 538 722 z "},"_":{"ha":611,"x_min":15,"x_max":594,"o":"m 551 -219 q 415 -228 474 -225 q 303 -232 357 -231 q 191 -233 249 -233 q 58 -232 133 -233 q 26 -219 36 -232 q 15 -190 15 -206 q 26 -162 15 -175 q 58 -149 36 -149 q 192 -151 135 -150 q 303 -150 249 -151 q 413 -147 356 -150 q 549 -135 471 -143 q 580 -146 568 -133 q 593 -174 592 -158 q 584 -203 594 -189 q 551 -219 574 -218 z "},"`":{"ha":2113,"x_min":0,"x_max":0,"o":""},"a":{"ha":681,"x_min":32,"x_max":653,"o":"m 633 188 q 651 158 649 175 q 644 128 653 140 q 619 110 636 115 q 585 119 603 106 q 524 169 550 142 q 474 233 497 196 q 383 113 446 163 q 249 63 321 63 q 94 106 157 63 q 32 261 32 150 q 54 382 32 328 q 111 475 76 436 q 191 534 147 513 q 278 556 235 556 q 376 531 332 556 q 446 472 419 506 q 458 433 461 451 q 442 403 454 414 q 411 394 429 393 q 379 418 393 396 q 339 453 364 435 q 278 472 314 472 q 219 457 249 472 q 167 414 190 442 q 129 347 143 386 q 115 261 115 308 q 127 202 115 225 q 158 167 139 179 q 201 149 176 153 q 249 144 225 144 q 307 162 278 144 q 360 206 336 179 q 399 263 383 232 q 414 319 414 293 q 442 367 414 357 q 488 347 471 376 q 556 258 515 301 q 633 188 596 215 z "},"b":{"ha":597,"x_min":54,"x_max":560,"o":"m 143 114 q 124 80 139 89 q 92 75 108 71 q 65 93 76 79 q 58 128 54 107 q 114 499 99 332 q 129 838 129 667 q 142 871 129 860 q 171 882 156 882 q 200 871 186 882 q 214 838 214 860 q 197 493 214 664 q 143 114 179 322 m 560 319 q 535 206 560 256 q 471 124 510 157 q 381 74 431 90 q 281 57 331 57 q 181 85 233 57 q 97 144 129 113 q 82 176 81 158 q 96 206 83 193 q 124 219 107 217 q 157 207 140 221 q 212 162 178 182 q 281 142 246 142 q 353 155 318 142 q 415 193 388 168 q 460 249 443 217 q 476 319 476 282 q 468 366 476 342 q 443 411 460 390 q 399 444 425 431 q 335 458 372 458 q 241 436 292 458 q 154 385 190 414 q 125 378 136 372 q 111 401 114 385 q 114 436 108 417 q 138 469 119 456 q 231 518 178 497 q 335 539 285 539 q 435 519 393 539 q 506 467 478 499 q 547 396 533 435 q 560 319 560 357 z "},"c":{"ha":556,"x_min":32,"x_max":518,"o":"m 479 106 q 374 72 433 85 q 251 60 314 60 q 183 71 221 60 q 111 108 144 82 q 55 179 78 136 q 32 288 32 222 q 66 401 32 349 q 151 490 100 453 q 261 553 203 529 q 368 586 319 578 q 408 579 392 589 q 428 556 424 569 q 422 528 432 542 q 386 510 413 514 q 294 477 342 499 q 206 426 246 456 q 141 361 167 397 q 115 288 115 325 q 130 216 115 244 q 167 171 144 188 q 216 148 190 154 q 265 142 242 142 q 363 155 311 142 q 460 185 414 168 q 499 188 485 194 q 515 165 513 181 q 509 132 518 150 q 479 106 500 114 z "},"d":{"ha":590,"x_min":43,"x_max":526,"o":"m 525 103 q 512 72 525 82 q 483 61 499 61 q 456 72 468 61 q 443 103 443 82 q 444 296 443 197 q 442 489 446 394 q 423 669 438 583 q 376 821 408 754 q 374 854 367 839 q 396 876 382 869 q 428 879 411 883 q 454 857 444 875 q 501 692 486 783 q 522 501 517 601 q 526 299 526 401 q 525 103 525 197 m 506 160 q 420 93 472 118 q 322 68 368 68 q 221 81 271 68 q 131 125 171 94 q 67 202 92 154 q 43 319 43 250 q 57 396 43 357 q 99 467 71 435 q 169 519 126 499 q 268 539 211 539 q 367 524 311 539 q 463 482 424 508 q 487 451 481 469 q 490 415 493 432 q 476 393 488 400 q 449 399 465 386 q 358 442 411 426 q 268 458 304 458 q 205 444 232 458 q 161 411 178 431 q 135 366 143 390 q 126 319 126 342 q 186 192 126 235 q 322 150 246 150 q 388 169 356 150 q 446 219 421 189 q 474 235 458 236 q 503 222 490 233 q 516 194 514 211 q 506 160 518 176 z "},"e":{"ha":597,"x_min":38,"x_max":557,"o":"m 525 108 q 483 88 508 97 q 431 71 458 78 q 374 58 403 63 q 322 54 346 54 q 209 66 261 54 q 118 106 157 78 q 59 177 81 132 q 38 288 38 222 q 65 399 38 347 q 136 489 92 450 q 239 550 182 528 q 357 572 296 572 q 419 566 386 572 q 479 544 451 560 q 524 503 506 529 q 542 436 542 476 q 521 347 542 379 q 468 297 500 314 q 397 276 436 281 q 319 271 357 271 q 209 288 264 271 q 113 328 154 306 q 88 355 93 338 q 89 388 83 372 q 108 409 94 401 q 140 407 122 417 q 223 367 178 382 q 319 353 268 353 q 367 355 342 353 q 413 365 392 357 q 446 390 432 374 q 460 436 460 407 q 448 463 460 453 q 421 478 436 472 q 387 485 404 483 q 357 488 369 488 q 270 472 313 488 q 194 428 228 456 q 141 363 161 400 q 121 282 121 325 q 168 172 121 207 q 311 136 215 136 q 408 148 360 136 q 494 185 456 160 q 528 190 513 196 q 551 171 544 185 q 552 138 557 156 q 525 108 547 121 z "},"f":{"ha":632,"x_min":19,"x_max":610,"o":"m 596 792 q 610 757 610 775 q 600 726 610 739 q 574 714 590 715 q 539 732 557 713 q 508 764 522 747 q 476 793 493 781 q 440 815 460 807 q 392 824 419 824 q 345 790 363 824 q 317 708 328 756 q 303 606 307 660 q 300 513 300 553 q 310 394 300 446 q 333 296 321 343 q 357 203 346 250 q 368 103 368 157 q 355 67 368 79 q 326 54 342 54 q 299 64 311 53 q 286 99 286 75 q 275 201 286 154 q 251 296 264 249 q 228 395 239 343 q 218 513 218 447 q 223 631 218 563 q 246 760 228 699 q 297 865 264 822 q 386 908 329 908 q 503 871 453 908 q 596 792 554 833 m 494 439 q 399 428 454 432 q 285 424 343 425 q 167 424 225 422 q 67 431 110 425 q 31 447 43 432 q 21 478 19 461 q 33 506 21 493 q 69 515 46 518 q 168 505 113 507 q 282 506 224 503 q 396 512 340 507 q 494 524 451 517 q 527 515 515 526 q 540 488 539 504 q 529 458 540 472 q 494 439 518 443 z "},"g":{"ha":549,"x_min":24,"x_max":494,"o":"m 494 122 q 428 -119 494 -39 q 243 -200 363 -200 q 182 -188 213 -200 q 124 -156 151 -176 q 74 -112 96 -136 q 38 -64 51 -87 q 28 -24 24 -43 q 44 3 32 -6 q 76 9 58 13 q 106 -15 93 6 q 131 -51 114 -33 q 167 -83 147 -68 q 206 -106 186 -97 q 243 -115 226 -115 q 328 -95 294 -115 q 382 -40 363 -75 q 409 35 401 -7 q 417 122 417 78 q 416 149 417 138 q 415 168 415 160 q 414 184 414 176 q 414 201 414 192 q 333 103 388 135 q 232 71 278 71 q 153 89 189 71 q 90 138 117 107 q 49 206 64 168 q 35 285 35 244 q 60 388 35 339 q 128 475 86 438 q 222 535 169 513 q 329 558 275 558 q 359 545 349 558 q 369 517 369 532 q 359 488 369 500 q 329 475 349 475 q 251 458 289 475 q 183 415 213 442 q 136 355 154 389 q 118 285 118 321 q 154 191 118 226 q 232 156 190 156 q 298 179 267 156 q 353 239 329 203 q 390 317 376 275 q 403 396 403 358 q 415 424 403 411 q 442 440 426 438 q 469 434 456 444 q 485 393 482 424 q 487 338 485 371 q 490 268 489 306 q 493 192 492 231 q 494 122 494 153 z "},"h":{"ha":549,"x_min":46,"x_max":514,"o":"m 157 101 q 141 64 156 76 q 111 51 126 51 q 82 65 94 51 q 72 106 69 78 q 77 474 89 282 q 49 840 65 667 q 58 875 46 863 q 85 889 69 888 q 114 877 100 889 q 132 840 128 865 q 139 756 135 806 q 147 649 143 706 q 155 528 151 590 q 160 407 158 467 q 224 506 179 467 q 319 544 268 544 q 447 485 406 544 q 501 349 489 426 q 505 191 514 269 q 482 74 496 113 q 458 46 474 53 q 428 43 443 39 q 405 63 414 47 q 403 101 396 78 q 419 188 411 128 q 425 308 428 247 q 398 415 421 368 q 319 461 375 461 q 264 435 292 461 q 213 364 236 410 q 174 250 190 317 q 157 101 158 183 z "},"i":{"ha":365,"x_min":-7,"x_max":371,"o":"m 197 496 q 196 404 197 456 q 192 300 194 353 q 183 196 188 247 q 169 106 178 144 q 149 69 164 81 q 119 60 135 58 q 93 72 104 60 q 86 106 82 83 q 100 199 94 147 q 108 303 106 250 q 113 406 111 356 q 115 496 115 456 q 128 533 115 521 q 156 546 140 546 q 184 533 171 546 q 197 496 197 521 m 314 832 q 335 726 371 775 q 106 622 274 674 l 100 626 q -7 876 28 696 l 14 906 q 136 899 75 943 l 147 890 q 188 833 178 868 q 301 842 274 861 l 314 832 z "},"j":{"ha":514,"x_min":6,"x_max":486,"o":"m 440 210 q 422 39 440 110 q 375 -75 404 -32 q 306 -140 344 -119 q 226 -160 268 -160 q 147 -142 181 -160 q 88 -96 113 -125 q 44 -31 63 -67 q 13 42 26 6 q 14 80 6 64 q 36 103 22 96 q 65 103 49 108 q 89 76 81 97 q 139 -26 110 18 q 226 -69 168 -69 q 318 7 279 -69 q 357 210 357 83 q 356 270 357 225 q 356 365 356 315 q 354 459 354 415 q 354 518 354 503 q 367 556 354 543 q 396 569 379 568 q 424 558 411 569 q 438 524 438 546 q 438 463 438 507 q 439 368 438 418 q 440 272 439 317 q 440 210 440 226 m 400 944 q 486 867 486 932 q 353 632 465 782 l 344 632 q 96 781 239 646 l 96 819 q 204 890 125 890 l 221 890 q 290 867 261 890 q 385 944 347 944 l 400 944 z "},"k":{"ha":597,"x_min":58,"x_max":571,"o":"m 494 461 q 408 408 453 438 q 317 346 363 378 q 228 281 271 314 q 149 219 185 247 q 120 214 132 207 q 103 238 108 221 q 101 273 97 253 q 121 307 106 293 q 191 363 150 332 q 276 425 232 393 q 366 484 322 456 q 446 532 410 513 q 485 538 468 543 q 511 518 503 532 q 515 488 518 504 q 494 461 511 471 m 543 136 q 567 110 563 126 q 564 81 571 94 q 542 60 557 67 q 508 63 526 53 q 428 108 469 78 q 350 178 388 139 q 283 262 314 217 q 235 353 253 307 q 235 385 226 371 q 257 406 243 400 q 288 406 272 411 q 311 382 303 400 q 352 304 325 342 q 411 235 379 267 q 478 177 443 203 q 543 136 513 151 m 169 96 q 156 60 169 72 q 129 49 143 49 q 101 59 114 49 q 89 90 89 69 q 90 285 89 192 q 90 469 92 379 q 83 649 89 560 q 61 835 76 739 q 69 866 58 854 q 96 881 81 878 q 126 874 111 882 q 146 846 142 865 q 167 658 161 749 q 174 475 172 567 q 172 291 174 385 q 169 96 169 197 z "},"l":{"ha":299,"x_min":85,"x_max":204,"o":"m 200 106 q 185 72 199 82 q 156 61 171 61 q 126 74 139 63 q 115 106 114 85 q 122 301 119 211 q 122 478 124 392 q 111 648 119 563 q 89 832 103 733 q 96 868 85 854 q 122 885 107 882 q 153 879 139 889 q 172 846 168 869 q 190 660 183 749 q 201 485 197 572 q 204 303 204 396 q 200 106 204 211 z "},"m":{"ha":722,"x_min":44,"x_max":689,"o":"m 138 442 q 186 498 157 475 q 257 521 215 521 q 337 488 306 521 q 381 399 368 456 q 425 494 389 453 q 508 536 461 536 q 600 482 564 536 q 656 356 636 428 q 683 213 676 285 q 688 106 689 140 q 673 72 686 83 q 644 61 660 61 q 617 75 629 63 q 608 114 606 88 q 604 199 610 142 q 585 311 599 256 q 553 410 572 368 q 508 453 533 453 q 462 417 479 453 q 436 332 444 381 q 424 232 428 282 q 419 153 421 182 q 403 122 417 132 q 376 113 390 113 q 349 125 361 114 q 338 157 338 136 q 335 219 338 174 q 326 314 333 265 q 302 399 318 361 q 257 436 286 436 q 204 401 224 436 q 175 315 185 365 q 163 208 165 265 q 160 108 160 151 q 147 76 160 86 q 118 65 133 65 q 90 76 103 65 q 78 108 78 86 q 69 319 78 222 q 49 499 61 417 q 55 535 44 521 q 81 551 65 549 q 110 544 96 553 q 129 513 125 535 q 131 494 129 503 q 133 476 132 485 q 135 459 133 468 q 138 442 136 450 z "},"n":{"ha":549,"x_min":46,"x_max":514,"o":"m 160 433 q 219 509 181 479 q 311 539 257 539 q 433 494 392 539 q 493 385 475 450 q 513 242 511 319 q 514 99 514 165 q 501 67 514 78 q 472 57 488 57 q 443 67 456 57 q 431 99 431 78 q 431 214 431 151 q 421 331 431 276 q 386 419 411 383 q 311 456 361 456 q 242 420 267 456 q 206 332 218 385 q 191 217 193 279 q 189 103 189 156 q 176 72 189 82 q 149 61 163 61 q 121 72 133 61 q 108 103 108 82 q 101 298 108 208 q 54 496 94 388 q 54 529 46 514 q 76 550 63 544 q 106 552 90 557 q 129 529 121 547 q 137 506 133 517 q 144 483 140 494 q 152 458 149 471 q 160 433 156 446 z "},"o":{"ha":799,"x_min":21,"x_max":775,"o":"m 235 660 q 399 578 304 660 q 529 660 440 660 l 579 660 q 775 397 775 629 q 481 19 775 217 q 447 -29 481 -29 q 103 233 103 208 q 21 381 54 233 l 21 397 q 235 660 54 660 m 86 364 q 431 86 143 236 q 693 414 693 247 l 693 463 q 546 594 693 594 l 529 594 q 414 479 503 594 l 349 479 q 218 594 349 582 q 86 364 107 594 m 218 529 l 267 529 q 399 397 383 397 q 546 529 399 499 l 579 529 q 644 414 644 501 q 382 185 517 185 q 151 463 151 357 q 218 529 151 489 z "},"p":{"ha":549,"x_min":56,"x_max":503,"o":"m 503 358 q 464 244 503 293 q 371 161 425 196 q 259 103 317 126 q 164 65 201 79 q 128 65 144 58 q 104 85 113 72 q 101 114 97 99 q 124 139 104 129 q 204 172 154 153 q 301 217 254 190 q 385 277 350 242 q 419 358 419 313 q 388 409 419 390 q 311 438 357 428 q 214 450 265 447 q 121 453 163 453 q 90 467 100 453 q 81 499 81 482 q 91 526 81 515 q 121 532 101 538 q 231 529 165 532 q 356 511 296 526 q 460 459 417 494 q 503 358 503 424 m 181 -154 q 167 -184 181 -174 q 139 -194 154 -194 q 110 -185 122 -194 q 97 -154 97 -175 q 94 23 97 -72 q 85 213 90 118 q 72 396 79 307 q 58 556 65 485 q 67 588 56 575 q 94 603 79 600 q 124 596 110 604 q 140 567 138 588 q 156 405 149 493 q 168 222 163 317 q 177 30 174 126 q 181 -154 181 -67 z "},"q":{"ha":549,"x_min":43,"x_max":501,"o":"m 394 153 q 330 97 372 119 q 243 74 288 74 q 177 85 213 74 q 113 124 142 96 q 63 195 82 150 q 43 307 43 240 q 58 388 43 346 q 104 464 74 429 q 176 519 133 497 q 275 542 219 542 q 332 535 296 542 q 389 521 368 529 q 416 497 408 513 q 419 468 424 482 q 402 446 415 454 q 368 444 389 438 q 324 453 351 449 q 275 458 296 458 q 206 443 233 458 q 160 406 178 428 q 134 356 142 383 q 126 307 126 329 q 137 232 126 261 q 165 186 147 203 q 203 163 182 169 q 243 157 224 157 q 315 179 285 157 q 365 238 344 201 q 399 315 386 272 q 417 396 411 357 q 434 425 419 417 q 465 432 449 433 q 491 417 481 429 q 497 385 501 404 q 480 263 485 329 q 475 122 475 196 q 478 -26 475 50 q 489 -175 482 -103 q 478 -208 490 -197 q 451 -221 467 -219 q 421 -212 435 -222 q 406 -181 407 -203 q 394 -14 399 -106 q 394 153 390 78 z "},"r":{"ha":576,"x_min":43,"x_max":554,"o":"m 154 396 q 216 485 169 444 q 322 526 263 526 q 471 479 414 526 q 549 364 528 432 q 547 332 554 344 q 526 314 539 319 q 499 315 514 310 q 479 339 485 319 q 420 416 460 388 q 322 444 381 444 q 251 413 281 444 q 203 333 222 382 q 176 222 185 283 q 167 99 167 160 q 153 57 167 71 q 124 44 139 43 q 96 59 108 44 q 86 101 83 74 q 84 315 92 208 q 51 488 76 422 q 51 521 43 506 q 75 542 60 536 q 106 540 89 547 q 132 510 122 533 q 144 458 138 493 q 154 396 151 424 z "},"s":{"ha":556,"x_min":50,"x_max":508,"o":"m 508 219 q 462 128 508 163 q 350 76 415 94 q 217 51 286 58 q 106 42 149 44 q 65 49 78 38 q 51 75 51 60 q 60 102 50 89 q 89 117 69 115 q 191 128 133 121 q 301 149 249 136 q 389 179 353 161 q 425 222 425 197 q 409 249 425 239 q 367 264 393 258 q 308 273 342 269 q 242 282 275 276 q 174 294 207 286 q 115 317 140 301 q 74 353 89 331 q 58 413 58 376 q 78 469 58 442 q 129 517 99 496 q 199 549 161 536 q 275 561 238 561 q 322 557 294 561 q 378 546 350 553 q 429 529 406 539 q 465 510 453 519 q 479 480 479 494 q 471 456 479 465 q 447 444 463 446 q 417 453 432 442 q 386 465 406 460 q 346 474 367 471 q 304 480 324 478 q 275 482 285 482 q 233 478 256 482 q 189 465 210 474 q 154 444 168 457 q 140 413 140 431 q 156 381 140 392 q 197 364 171 369 q 256 353 224 357 q 324 346 289 350 q 391 335 358 342 q 450 313 424 328 q 492 276 476 299 q 508 219 508 254 z "},"t":{"ha":549,"x_min":21,"x_max":526,"o":"m 511 264 q 400 149 453 196 q 278 54 347 103 q 237 47 256 40 q 214 76 218 54 q 175 274 186 183 q 167 451 164 365 q 180 623 168 538 q 208 807 192 708 q 225 834 211 826 q 254 839 239 842 q 281 824 269 836 q 289 792 292 811 q 263 626 274 701 q 250 478 253 550 q 253 328 247 404 q 278 160 260 251 q 329 195 307 178 q 372 233 351 213 q 414 276 393 253 q 463 328 435 299 q 490 341 475 342 q 515 329 506 340 q 526 300 525 318 q 511 264 526 282 m 440 475 q 345 458 396 465 q 244 449 294 451 q 147 445 194 444 q 61 450 99 446 q 30 465 39 451 q 22 494 21 479 q 35 522 24 510 q 69 535 47 535 q 148 530 104 531 q 240 531 192 529 q 336 537 288 532 q 428 550 385 542 q 464 544 451 554 q 478 521 476 535 q 469 492 479 506 q 440 475 460 478 z "},"u":{"ha":701,"x_min":51,"x_max":688,"o":"m 665 136 q 685 106 683 124 q 679 76 688 89 q 654 60 671 64 q 619 68 638 56 q 524 174 565 100 q 468 333 483 247 q 450 238 465 286 q 408 153 435 190 q 344 90 382 114 q 260 65 307 65 q 163 92 203 65 q 99 158 124 118 q 63 247 74 199 q 51 342 51 296 q 58 441 51 383 q 83 535 64 499 q 110 555 93 553 q 139 549 126 557 q 159 524 153 540 q 157 488 165 507 q 140 417 144 463 q 135 342 135 371 q 140 281 135 314 q 160 217 144 247 q 198 167 174 188 q 260 147 222 147 q 331 185 301 147 q 379 275 360 222 q 408 385 399 328 q 417 485 417 443 q 428 517 417 504 q 456 532 440 529 q 484 526 469 535 q 503 499 499 518 q 526 400 511 454 q 560 293 540 346 q 606 199 579 242 q 665 136 632 156 z "},"v":{"ha":542,"x_min":24,"x_max":525,"o":"m 514 501 q 372 308 444 415 q 235 88 300 200 q 189 59 217 54 q 157 101 161 64 q 104 313 140 218 q 32 488 68 408 q 31 520 24 506 q 51 540 38 535 q 83 542 67 547 q 110 518 99 538 q 140 447 126 483 q 168 372 154 410 q 193 296 181 335 q 218 219 206 257 q 265 300 238 257 q 321 386 292 343 q 381 470 351 429 q 438 544 411 511 q 473 569 454 567 q 504 561 492 571 q 522 534 518 551 q 514 501 525 517 z "},"w":{"ha":826,"x_min":26,"x_max":801,"o":"m 788 467 q 664 289 725 392 q 563 88 603 186 q 522 53 547 54 q 476 82 496 51 q 418 199 442 135 q 389 328 394 263 q 308 194 360 258 q 211 88 257 129 q 165 78 194 72 q 132 114 136 83 q 115 201 125 151 q 93 301 106 250 q 66 404 81 354 q 35 493 51 454 q 34 528 26 511 q 57 551 42 544 q 89 552 71 558 q 118 521 107 546 q 142 448 131 489 q 164 363 154 407 q 182 274 174 318 q 194 193 190 231 q 288 314 239 239 q 357 467 338 389 q 375 497 361 486 q 404 506 389 507 q 432 492 419 504 q 449 456 444 479 q 474 299 457 372 q 517 176 490 226 q 558 264 533 218 q 608 356 582 310 q 665 444 636 401 q 719 521 693 486 q 752 540 733 539 q 783 532 771 542 q 799 503 796 521 q 788 467 801 485 z "},"x":{"ha":556,"x_min":31,"x_max":521,"o":"m 503 144 q 519 118 517 135 q 514 88 521 101 q 492 69 507 75 q 460 74 478 63 q 241 240 347 142 q 61 469 135 339 q 57 504 50 488 q 78 529 64 521 q 108 535 92 538 q 135 515 124 533 q 298 301 201 394 q 503 144 394 208 m 433 475 q 263 299 342 400 q 115 93 185 197 q 84 67 101 71 q 53 72 67 64 q 35 97 39 81 q 43 131 31 113 q 201 355 115 243 q 383 544 286 467 q 414 552 399 557 q 439 535 429 547 q 447 505 447 522 q 433 475 447 488 z "},"y":{"ha":576,"x_min":43,"x_max":556,"o":"m 286 201 q 295 168 299 185 q 279 142 292 151 q 250 133 267 132 q 221 150 233 133 q 122 303 160 226 q 51 475 83 381 q 51 510 43 494 q 75 532 60 525 q 104 533 89 538 q 126 510 119 528 q 190 349 156 419 q 286 201 225 278 m 543 458 q 436 331 488 393 q 336 199 385 269 q 238 43 286 128 q 143 -149 190 -42 q 117 -174 133 -168 q 86 -172 100 -179 q 66 -147 72 -165 q 72 -100 60 -129 q 172 97 122 10 q 272 257 222 183 q 372 391 321 329 q 476 513 422 453 q 510 530 493 531 q 540 518 528 529 q 553 490 551 507 q 543 458 556 472 z "},"z":{"ha":576,"x_min":26,"x_max":546,"o":"m 517 117 q 423 78 476 90 q 314 61 369 65 q 205 60 258 57 q 113 71 151 64 q 81 89 90 72 q 72 122 72 106 q 106 195 72 153 q 188 285 139 238 q 285 378 235 331 q 371 469 336 426 q 307 469 344 471 q 229 464 269 468 q 148 451 188 458 q 78 433 108 443 q 46 435 58 426 q 31 458 33 443 q 33 490 26 474 q 61 515 40 507 q 135 533 88 525 q 236 546 183 542 q 340 553 289 551 q 425 553 390 556 q 455 541 442 550 q 468 513 468 532 q 431 418 468 465 q 343 325 393 371 q 244 234 294 278 q 169 150 194 190 q 240 142 199 143 q 324 147 281 142 q 406 163 367 153 q 474 190 446 174 q 513 199 496 203 q 539 181 531 194 q 542 149 546 167 q 517 117 538 131 z "},"{":{"ha":451,"x_min":53,"x_max":421,"o":"m 389 3 q 308 -11 350 -10 q 229 1 265 -12 q 170 45 193 15 q 147 128 147 75 q 151 167 147 149 q 161 204 156 186 q 172 242 167 224 q 176 285 176 261 q 167 304 176 299 q 146 310 158 310 q 119 308 133 310 q 96 307 106 306 q 67 318 78 308 q 56 340 57 328 q 60 364 53 353 q 85 382 67 375 q 125 397 100 389 q 175 415 150 406 q 216 441 199 426 q 233 475 233 456 q 210 531 233 507 q 160 582 188 556 q 110 638 132 607 q 88 713 88 668 q 138 865 88 804 q 310 926 189 926 q 343 913 332 926 q 356 885 354 900 q 344 856 356 868 q 310 843 332 843 q 201 810 231 843 q 172 713 172 778 q 194 661 172 686 q 243 608 217 636 q 292 547 269 579 q 315 475 315 515 q 288 406 315 436 q 221 361 261 376 q 249 331 238 350 q 261 285 261 313 q 256 242 261 261 q 246 204 251 224 q 235 167 239 186 q 231 128 231 149 q 244 88 231 100 q 278 72 258 75 q 321 74 299 69 q 361 82 343 78 q 397 78 382 88 q 417 54 411 69 q 415 24 421 39 q 389 3 408 8 z "},"|":{"ha":375,"x_min":122,"x_max":242,"o":"m 238 8 q 222 -26 236 -15 q 193 -36 208 -37 q 165 -24 178 -35 q 154 8 153 -12 q 160 228 158 114 q 160 457 163 343 q 149 680 157 571 q 126 886 140 789 q 133 922 122 908 q 161 939 144 936 q 192 933 176 943 q 211 900 207 924 q 228 692 221 804 q 239 464 236 581 q 242 231 242 347 q 238 8 242 114 z "},"}":{"ha":451,"x_min":33,"x_max":400,"o":"m 371 382 q 394 364 388 375 q 397 340 400 353 q 385 318 396 328 q 358 307 375 308 q 333 308 347 306 q 307 310 319 310 q 285 304 293 310 q 276 285 276 299 q 281 242 276 261 q 293 204 286 224 q 304 167 299 186 q 310 128 310 149 q 285 45 310 75 q 225 1 261 15 q 147 -11 189 -12 q 68 3 104 -10 q 40 24 46 8 q 39 54 33 39 q 58 78 43 69 q 93 82 72 88 q 133 74 110 78 q 175 72 156 69 q 210 88 196 75 q 225 128 225 100 q 220 167 225 149 q 210 204 215 186 q 200 242 204 224 q 196 285 196 261 q 206 331 196 313 q 233 361 217 350 q 167 406 194 376 q 139 475 139 436 q 161 547 139 515 q 210 608 183 579 q 259 661 236 636 q 282 713 282 686 q 253 810 282 778 q 144 843 225 843 q 110 856 121 843 q 100 885 100 868 q 111 913 100 900 q 144 926 122 926 q 316 865 265 926 q 367 713 367 804 q 344 638 367 668 q 294 582 321 607 q 244 531 267 556 q 222 475 222 507 q 239 441 222 456 q 279 415 256 426 q 328 397 303 406 q 371 382 353 389 z "},"~":{"ha":736,"x_min":47,"x_max":696,"o":"m 633 572 q 667 579 651 585 q 690 558 683 574 q 691 522 696 543 q 664 482 686 500 q 622 454 647 469 q 565 426 596 439 q 502 404 535 413 q 440 396 469 396 q 384 410 408 394 q 339 444 360 425 q 299 478 318 463 q 257 496 279 494 q 214 485 235 494 q 174 464 193 476 q 140 437 156 450 q 117 415 125 424 q 85 399 101 399 q 58 411 68 400 q 47 442 47 422 q 65 485 47 463 q 101 519 78 500 q 153 553 124 538 q 214 581 181 569 q 282 593 247 592 q 331 576 308 592 q 372 542 353 560 q 413 507 392 522 q 458 493 433 492 q 506 499 483 492 q 551 518 529 507 q 594 544 574 529 q 633 572 614 558 z "},"":{"ha":1083,"x_min":0,"x_max":0,"o":""},"":{"ha":361,"x_min":71,"x_max":285,"o":"m 268 111 q 283 72 285 90 q 268 43 281 53 q 235 36 256 33 q 197 63 215 39 l 86 196 q 74 228 71 213 q 89 253 76 244 q 119 260 101 261 q 154 242 138 258 l 268 111 z "},"":{"ha":361,"x_min":38,"x_max":297,"o":"m 297 101 q 259 10 297 47 q 167 -26 221 -26 q 76 10 114 -26 q 38 101 38 47 q 76 193 38 156 q 167 231 114 231 q 259 193 221 231 q 297 101 297 156 m 218 101 q 203 139 218 122 q 167 156 189 156 q 131 139 146 156 q 115 101 115 122 q 131 64 115 81 q 167 47 146 47 q 203 64 189 47 q 218 101 218 81 z "},"":{"ha":1083,"x_min":479,"x_max":614,"o":"m 614 539 q 592 492 614 513 q 543 472 569 472 q 499 493 518 472 q 479 539 479 514 q 499 586 479 565 q 543 607 518 607 q 592 586 569 607 q 614 539 614 565 z "},"":{"ha":1083,"x_min":278,"x_max":817,"o":"m 417 539 q 394 492 417 513 q 346 472 371 472 q 299 493 319 472 q 278 539 278 514 q 299 586 278 565 q 346 607 319 607 q 394 586 371 607 q 417 539 417 565 m 817 539 q 794 492 817 513 q 747 472 771 472 q 699 493 719 472 q 679 539 679 514 q 699 586 679 565 q 747 607 719 607 q 794 586 771 607 q 817 539 817 565 z "},"":{"ha":1083,"x_min":169,"x_max":925,"o":"m 306 539 q 283 492 306 513 q 235 472 261 472 q 189 493 208 472 q 169 539 169 514 q 189 586 169 565 q 235 607 208 607 q 283 586 261 607 q 306 539 306 565 m 611 539 q 589 492 611 513 q 542 472 567 472 q 497 493 517 472 q 476 539 476 514 q 497 586 476 565 q 542 607 517 607 q 589 586 567 607 q 611 539 611 565 m 925 539 q 902 492 925 513 q 856 472 879 472 q 808 493 828 472 q 788 539 788 514 q 808 586 788 565 q 856 607 828 607 q 902 586 879 607 q 925 539 925 565 z "},"":{"ha":1083,"x_min":308,"x_max":790,"o":"m 443 900 q 421 852 443 872 q 374 832 399 832 q 327 852 346 832 q 308 900 308 872 q 327 947 308 925 q 374 968 346 968 q 421 947 399 968 q 443 900 443 925 m 790 900 q 767 852 790 872 q 719 832 744 832 q 672 852 693 832 q 651 900 651 872 q 672 947 651 925 q 719 968 693 968 q 767 947 744 968 q 790 900 790 925 z "},"":{"ha":1083,"x_min":308,"x_max":753,"o":"m 528 544 q 499 501 518 525 q 457 451 479 476 q 415 407 435 428 q 383 376 394 386 q 347 361 364 360 q 319 374 329 363 q 309 404 308 386 q 329 442 310 422 q 360 471 342 451 q 396 511 378 490 q 431 553 415 532 q 454 586 446 574 q 481 608 465 604 q 511 606 497 613 q 530 582 524 599 q 528 544 536 565 m 744 544 q 715 501 735 525 q 674 451 696 476 q 631 407 651 428 q 600 376 611 386 q 563 361 581 360 q 536 374 546 363 q 526 404 525 386 q 546 442 526 422 q 576 471 558 451 q 613 511 594 490 q 647 553 632 532 q 671 586 663 574 q 698 608 682 604 q 728 606 714 613 q 747 582 740 599 q 744 544 753 565 z "},"":{"ha":1083,"x_min":261,"x_max":826,"o":"m 776 442 l 308 442 q 273 453 285 442 q 261 478 261 464 q 273 503 261 492 q 308 515 285 515 l 776 515 q 814 503 801 515 q 826 478 826 492 q 813 453 825 464 q 776 442 800 442 z "},"":{"ha":1083,"x_min":40,"x_max":1046,"o":"m 996 442 l 86 442 q 51 453 63 442 q 40 478 40 464 q 51 503 40 492 q 86 515 63 515 l 996 515 q 1033 503 1021 515 q 1046 478 1046 492 q 1032 453 1044 464 q 996 442 1019 442 z "},"":{"ha":1083,"x_min":400,"x_max":693,"o":"m 474 17 q 462 -12 474 -3 q 436 -21 450 -21 q 411 -12 422 -21 q 400 17 400 -3 l 400 924 q 411 951 400 942 q 436 961 422 961 q 462 951 450 961 q 474 924 474 942 l 474 17 m 693 17 q 681 -12 693 -3 q 656 -21 669 -21 q 631 -12 642 -21 q 619 17 619 -3 l 619 924 q 631 951 619 942 q 656 961 642 961 q 681 951 669 961 q 693 924 693 942 l 693 17 z "},"":{"ha":1083,"x_min":414,"x_max":817,"o":"m 810 -10 q 809 -45 817 -29 q 788 -68 801 -61 q 757 -72 772 -75 q 733 -49 742 -68 q 553 428 631 197 q 419 881 475 660 q 424 914 414 900 q 447 932 433 928 q 477 929 463 936 q 497 903 492 922 q 633 461 560 689 q 810 -10 707 233 z "},"":{"ha":903,"x_min":18,"x_max":875,"o":"m 867 746 q 818 635 854 688 q 732 543 782 582 q 624 485 682 504 q 511 475 565 465 q 403 523 450 485 q 326 614 356 561 q 284 730 296 667 q 283 854 272 793 q 324 960 293 913 q 401 1040 356 1008 q 504 1086 447 1072 q 625 1092 561 1100 q 741 1047 692 1082 q 821 963 790 1013 q 863 856 851 914 q 867 746 875 799 m 597 475 q 599 443 597 463 q 592 408 600 424 q 558 385 582 392 q 488 393 535 379 q 428 422 444 404 q 410 457 411 439 q 419 494 410 476 q 438 526 428 513 q 462 541 447 539 q 489 538 476 543 q 503 520 500 532 q 494 493 507 508 q 487 484 490 489 q 483 475 483 479 q 488 467 483 471 q 503 461 492 464 q 533 456 529 454 q 533 481 538 457 q 541 504 532 496 q 561 511 550 513 q 583 502 572 511 q 597 475 594 493 m 551 215 q 503 100 551 131 q 389 69 454 69 q 331 91 357 68 q 279 142 304 114 q 230 193 254 169 q 181 218 206 217 q 127 190 142 218 q 108 129 113 161 q 104 115 106 121 q 103 103 103 110 q 101 90 101 97 q 100 75 100 83 q 53 42 81 38 q 18 83 26 46 q 27 140 22 113 q 40 192 32 168 q 86 264 51 225 q 183 303 121 303 q 266 278 233 301 q 322 228 299 254 q 361 178 344 200 q 394 157 378 156 q 445 164 419 157 q 471 215 471 171 q 463 267 471 232 q 442 328 454 303 q 441 361 433 346 q 463 382 449 376 q 494 381 478 388 q 524 351 511 374 q 533 322 528 340 q 542 283 538 303 q 549 245 546 264 q 551 215 551 226 m 793 756 q 790 838 800 794 q 757 918 781 881 q 698 982 733 956 q 619 1017 663 1008 q 451 981 525 1029 q 360 843 376 932 q 359 749 351 797 q 389 658 367 700 q 444 586 410 617 q 522 547 478 556 q 608 556 564 539 q 692 603 653 572 q 757 675 729 635 q 793 756 785 715 m 736 838 q 723 809 733 819 q 701 797 713 799 q 680 805 690 796 q 668 838 669 814 q 660 872 665 854 q 647 906 654 890 q 637 940 635 926 q 650 958 639 954 q 674 959 660 964 q 701 940 689 954 q 726 887 717 915 q 736 838 736 858 z "},"":{"ha":333,"x_min":88,"x_max":251,"o":"m 174 906 q 226 881 204 903 q 250 826 247 858 q 228 767 251 792 q 171 740 204 742 q 112 761 136 738 q 88 818 88 785 q 88 823 88 819 q 88 826 88 826 l 88 829 q 94 880 88 851 q 114 935 101 908 q 143 985 126 963 q 179 1022 160 1008 q 203 1029 192 1032 q 222 1018 215 1026 q 227 996 228 1008 q 215 972 226 983 q 191 944 203 963 q 174 906 179 926 z "},"":{"ha":333,"x_min":68,"x_max":235,"o":"m 149 867 q 94 888 115 867 q 72 943 74 910 q 91 1001 68 976 q 149 1029 114 1026 q 208 1008 182 1031 q 235 951 235 985 q 235 948 235 951 q 235 943 235 944 l 235 943 q 226 890 235 918 q 206 835 218 861 q 176 786 193 808 q 143 751 160 764 q 116 740 128 739 q 99 751 104 742 q 94 774 92 760 q 108 800 96 788 q 129 825 117 808 q 149 867 142 842 z "},"":{"ha":500,"x_min":67,"x_max":447,"o":"m 369 906 q 422 881 400 903 q 446 826 443 858 q 424 767 447 792 q 367 740 400 742 q 308 761 332 738 q 283 818 283 785 q 283 823 283 819 q 283 826 283 826 l 283 829 q 290 880 283 851 q 310 935 297 908 q 339 985 322 963 q 375 1022 356 1008 q 399 1029 388 1032 q 418 1018 411 1026 q 423 996 424 1008 q 411 972 422 983 q 387 944 399 963 q 369 906 375 926 m 153 906 q 205 881 183 903 q 229 826 226 858 q 207 767 231 792 q 150 740 183 742 q 91 761 115 738 q 67 818 67 785 q 67 823 67 819 q 67 826 67 826 l 67 829 q 74 880 67 851 q 93 935 81 908 q 122 985 106 963 q 158 1022 139 1008 q 183 1029 171 1032 q 201 1018 194 1026 q 206 996 207 1008 q 194 972 206 983 q 170 944 182 963 q 153 906 158 926 z "},"":{"ha":500,"x_min":60,"x_max":443,"o":"m 140 867 q 86 888 107 867 q 64 943 65 910 q 83 1001 60 976 q 140 1029 106 1026 q 200 1008 174 1031 q 226 951 226 985 q 226 948 226 951 q 226 943 226 944 l 226 943 q 218 890 226 918 q 197 835 210 861 q 168 786 185 808 q 135 751 151 764 q 108 740 119 739 q 90 751 96 742 q 85 774 83 760 q 100 800 88 788 q 121 825 108 808 q 140 867 133 842 m 357 867 q 303 888 324 867 q 281 943 282 910 q 299 1001 276 976 q 357 1029 322 1026 q 417 1008 390 1031 q 443 951 443 985 q 443 948 443 951 q 443 943 443 944 l 443 943 q 435 890 443 918 q 414 835 426 861 q 385 786 401 808 q 351 751 368 764 q 324 740 336 739 q 307 751 313 742 q 302 774 300 760 q 317 800 304 788 q 338 825 325 808 q 357 867 350 842 z "},"":{"ha":389,"x_min":88,"x_max":347,"o":"m 347 997 l 347 883 l 185 783 l 185 174 l 347 76 l 347 -37 l 88 125 l 88 832 l 347 997 z "},"":{"ha":389,"x_min":43,"x_max":303,"o":"m 43 997 l 303 832 l 303 125 l 43 -37 l 43 76 l 203 174 l 203 783 l 43 883 l 43 997 z "},"":{"ha":514,"x_min":78,"x_max":461,"o":"m 193 481 l 461 49 l 372 0 l 78 481 l 372 965 l 461 915 l 193 481 z "},"":{"ha":514,"x_min":51,"x_max":438,"o":"m 322 481 l 51 915 l 143 965 l 438 481 l 140 0 l 54 49 l 322 481 z "},"":{"ha":528,"x_min":53,"x_max":489,"o":"m 357 965 l 146 481 l 357 -6 l 264 -6 l 53 481 l 264 965 l 357 965 m 486 965 l 278 481 l 489 -6 l 397 -6 l 186 481 l 397 965 l 486 965 z "},"":{"ha":528,"x_min":43,"x_max":476,"o":"m 175 965 l 265 965 l 476 481 l 265 -6 l 172 -6 l 383 481 l 175 965 m 43 965 l 132 965 l 343 481 l 132 -6 l 43 -6 l 254 481 l 43 965 z "},"":{"ha":486,"x_min":111,"x_max":428,"o":"m 111 515 l 111 975 l 428 975 l 428 918 l 178 918 l 178 515 l 111 515 z "},"":{"ha":486,"x_min":64,"x_max":379,"o":"m 379 442 l 379 -18 l 64 -18 l 64 39 l 311 39 l 311 442 l 379 442 z "},"":{"ha":500,"x_min":122,"x_max":442,"o":"m 246 513 l 122 513 l 122 975 l 442 975 l 442 857 l 246 857 l 246 513 m 203 558 l 203 903 l 394 903 l 394 932 l 168 932 l 168 558 l 203 558 z "},"":{"ha":500,"x_min":61,"x_max":381,"o":"m 257 444 l 381 444 l 381 -18 l 61 -18 l 61 101 l 257 101 l 257 444 m 303 399 l 303 54 l 110 54 l 110 25 l 335 25 l 335 399 l 303 399 z "},"":{"ha":528,"x_min":97,"x_max":471,"o":"m 471 -18 l 97 -18 l 97 975 l 471 975 q 274 767 349 897 q 200 481 200 636 q 274 192 200 322 q 471 -18 349 63 z "},"":{"ha":528,"x_min":61,"x_max":438,"o":"m 61 -15 q 257 194 182 64 q 332 482 332 325 q 258 767 332 636 q 64 978 183 899 l 438 978 l 438 -15 l 61 -15 z "},"":{"ha":1083,"x_min":338,"x_max":889,"o":"m 850 482 q 623 464 740 465 q 381 467 506 463 q 349 480 360 467 q 338 508 338 493 q 348 538 338 525 q 381 550 358 550 q 616 547 504 543 q 842 567 728 550 q 873 558 861 569 q 888 531 885 546 q 880 499 889 514 q 850 482 871 485 m 642 250 q 626 216 640 226 q 597 206 613 206 q 568 217 581 206 q 557 250 556 228 q 560 390 558 328 q 561 510 561 451 q 556 628 560 568 q 542 761 551 688 q 549 794 538 783 q 576 806 561 806 q 606 797 592 807 q 622 767 619 786 q 635 633 631 693 q 642 513 640 572 q 644 391 644 454 q 642 250 643 328 m 850 103 q 623 85 740 86 q 381 88 506 83 q 349 101 360 88 q 338 129 338 114 q 348 158 338 146 q 381 171 358 171 q 616 167 504 164 q 842 188 728 171 q 873 178 861 190 q 888 151 885 167 q 880 120 889 135 q 850 103 871 106 z "},"":{"ha":1083,"x_min":317,"x_max":821,"o":"m 785 632 q 705 528 751 586 q 607 411 658 471 q 503 297 556 353 q 406 199 451 240 q 372 185 390 183 q 343 197 354 186 q 329 224 331 207 q 346 258 328 242 q 442 353 392 300 q 543 465 493 407 q 639 579 593 522 q 719 683 685 636 q 748 699 732 699 q 776 689 764 699 q 792 663 788 679 q 785 632 796 647 m 807 276 q 818 241 821 258 q 804 213 815 224 q 777 201 793 201 q 747 217 761 200 q 644 324 693 274 q 544 422 594 375 q 444 514 496 469 q 335 604 393 558 q 317 633 317 617 q 328 660 318 649 q 356 675 339 672 q 389 667 372 678 q 601 481 503 572 q 807 276 699 389 z "},"":{"ha":1083,"x_min":269,"x_max":821,"o":"m 782 456 q 556 437 672 439 q 314 439 439 435 q 282 452 293 439 q 271 482 271 465 q 280 510 269 497 q 314 524 290 524 q 549 519 438 517 q 774 539 660 522 q 805 530 793 542 q 819 503 817 518 q 812 473 821 488 q 782 456 803 458 z "}}}
